<svg width="13.6565em" height="4.1715em" viewBox="0 -2154.8 11759.7 3591.9" xmlns="http://www.w3.org/2000/svg" xmlns:xlink="http://www.w3.org/1999/xlink" overflow="hidden"><style>
.MsftOfcThm_Background1_Fill_v2 {
 fill:#FFFFFF; 
}
</style>
<defs><path d="M213 578 200 573C190.667 569.667 177.333 566.333 160 563 142.667 559.667 123.333 557.333 102 556L83 556 83 602 102 602C133.333 603.333 162.333 608.333 189 617 215.667 625.667 234.333 633.667 245 641 255.667 648.333 265 655.667 273 663 274.333 665 278.333 666 285 666 291 666 296.667 664 302 660L302 361 303 61C307.667 56.3333 311.667 53.3333 315 52 318.333 50.6667 326.333 49.3333 339 48 351.667 46.6667 372.333 46 401 46L427 46 427 0 416 0C402 2 349 3 257 3 166.333 3 114 2 100 0L88 0 88 46 114 46C128.667 46 141.333 46 152 46 162.667 46 171 46.3333 177 47 183 47.6667 188.333 48.6667 193 50 197.667 51.3333 200.333 52 201 52 201.667 52 203.667 53.6667 207 57 210.333 60.3333 212.333 61.6667 213 61L213 578Z" id="E1-MJMAIN-31" class="MsftOfcThm_Background1_Fill_v2" fill="#FFFFFF"/><path d="M289 629C289 633 270 635.667 232 637 216 637 205.667 637.333 201 638 196.333 638.667 194 642 194 648 194 648.667 194.667 652.333 196 659 196.667 661 197.333 663.333 198 666 198.667 668.667 199 670.333 199 671 199 671.667 199.667 673.333 201 676 202.333 678.667 203 679.667 203 679 203 678.333 204.333 679 207 681 209.667 683 211.333 683.667 212 683 212.667 682.333 215.333 682.333 220 683 224.667 683.667 228.667 684 232 684 236 684 246 684 262 684 278 684 293 683.667 307 683 359.667 683 390 683 398 683 406 683 411.333 681.333 414 678 414.667 675.333 427 581.333 451 396L487 117 510 154C526 178 547.333 211.333 574 254 600.667 296.667 630 343.333 662 394 778.667 580 837.667 673.667 839 675 839.667 675.667 840.667 676.667 842 678 843.333 679.333 844.667 680.333 846 681L852 683 948 683C959.333 683 972.667 683 988 683 1003.33 683 1013 683.333 1017 684 1039.67 684 1051 680.333 1051 673 1051 669.667 1050 664 1048 656 1046 648 1045 643.667 1045 643 1042.33 639 1030 637 1008 637 981.333 636.333 964.333 635.333 957 634 949.667 632.667 943.667 629 939 623 937 619.667 913 525.333 867 340 821 154.667 797.667 61 797 59 797 56.3333 797.333 54.6667 798 54 798.667 53.3333 801 52 805 50 809 48 814.667 47.3333 822 48 829.333 48.6667 840.333 48 855 46L886 46C890 40 892 36.3333 892 35 892 24.3333 889.667 14.3333 885 5 881.667 1.66667 876.333 0 869 0 865.667 0 852 0.333333 828 1 804 1.66667 773.333 2 736 2 695.333 2 664.667 2 644 2 623.333 2 611.667 1.66667 609 1 597.667 1 592 4.33333 592 11 592 12.3333 592.667 17 594 25 596.667 35.6667 599.333 41.6667 602 43 604.667 44.3333 612.333 45.3333 625 46 643 46 663 47 685 49 694.333 51 700.667 55 704 61 705.333 63.6667 718 112.333 742 207 766 301.667 789.667 396 813 490 836.333 584 848 631 848 631L654 322C523.333 114 456.333 8.33333 453 5 451.667 4.33333 450.333 3.66667 449 3 445.667 1 440.333 0 433 0 423 0 417 2.33333 415 7 413.667 9.66667 400 113 374 317L335 624 267 354C222.333 176.667 200 85 200 79 204 57 228 46 272 46L282 46C286 42.6667 288.333 39.6667 289 37 289.667 34.3333 288.667 28.3333 286 19 283.333 8.33333 280.667 2.33333 278 1 275.333 0.333333 271.667 0 267 0 265.667 0 261.667 0 255 0 248.333 0 237 0.333333 221 1 205 1.66667 183.667 2 157 2 137 2 116.333 1.66667 95 1 73.6667 0.333333 61.3333 0 58 0 48 0 41.6667 0.666667 39 2 36.3333 3.33333 35 6.33333 35 11 35 12.3333 36 17 38 25 40 33 41.6667 38 43 40 44.3333 44 51.6667 46 65 46 111.667 46 141.333 59.3333 154 86 156.667 90 179.667 179.333 223 354 266.333 528.667 288.333 620.333 289 629Z" id="E1-MJMATHI-4D" class="MsftOfcThm_Background1_Fill_v2" fill="#FFFFFF"/><path d="M234 637C232 637 229.333 637 226 637 209.333 637 199.333 637.333 196 638 192.667 638.667 191 642.333 191 649 191 667 194.667 678 202 682 203.333 682.667 235.667 683 299 683 350.333 683 379.667 683 387 683 394.333 683 399 681 401 677 541.667 346.333 613.333 176.667 616 168L670 381C705.333 521.667 723 596.667 723 606 723 624 701.667 634.333 659 637 643 637 635 640.667 635 648 635 649.333 635.667 653.333 637 660 639.667 670.667 641.667 677 643 679 644.333 681 647.667 682.333 653 683 655 683 665.333 682.667 684 682 702.667 681.333 730.333 680.667 767 680 800.333 680 825.667 680.333 843 681 860.333 681.667 870.333 682 873 682 883 682 888 678.667 888 672 888 657.333 885.333 647.333 880 642 878.667 638.667 871.333 637 858 637 810.667 634.333 781 621 769 597L620 7C618.667 2.33333 611.667 0 599 0 589.667 0 584 0.666667 582 2 580 4 537 105 453 305L326 604 261 344C217.667 173.333 196 85 196 79 199.333 57 223.333 46 268 46L278 46C282 42.6667 284 40 284 38 284 36 283.333 29.6667 282 19 279.333 10.3333 276 4 272 0L259 0C238.333 1.33333 202.333 2 151 2 132.333 2 115.333 2 100 2 84.6667 2 72.3333 2 63 2 53.6667 2 48 1.66667 46 1 36 1 31 4 31 10 31 12.6667 32 18 34 26 36 34 37.6667 38.6667 39 40 40.3333 44 48 46 62 46 107.333 48 136.667 61 150 85 152.667 89 176.333 181.333 221 362L289 634C287.667 634.667 269.333 635.667 234 637Z" id="E1-MJMATHI-4E" class="MsftOfcThm_Background1_Fill_v2" fill="#FFFFFF"/><path d="M60 948C62 949.333 263.667 950 665 950L1267 950 1325 815C1364.33 723 1385.33 674.333 1388 669L1348 669 1341 683C1327 710.333 1308.33 736.333 1285 761 1251.67 793 1214.67 818.667 1174 838 1133.33 857.333 1086.33 871.667 1033 881 979.667 890.333 929.333 896 882 898 834.667 900 773.667 901.333 699 902L574 902 543 902 251 902 259 891C567.667 469 722.667 256 724 252 724.667 250.667 724.667 248.667 724 246 722 244 634 143.333 460-56L196-356C196-356.667 266.333-357 407-357 441.667-357 488.667-357 548-357 607.333-357 650-357.333 676-358 766.667-358 840-356.333 896-353 952-349.667 1007.67-342.667 1063-332 1118.33-321.333 1165.33-305 1204-283 1242.67-261 1277-232 1307-196 1321-178.667 1334.67-154.667 1348-124L1388-124C1388-124.667 1385.67-131.667 1381-145 1376.33-158.333 1368-180 1356-210 1344-240 1333.67-268 1325-294L1267-449 666-450C264.667-450 63-449.333 61-448 57-446.667 55-443.667 55-439 55-437.667 55.6667-435.667 57-433L590 177C590 177.667 579 192.667 557 222 535 251.333 500 299.333 452 366 404 432.667 360.667 492 322 544L56 909 55 924C55 938 56.6667 946 60 948Z" id="E1-MJSZ2-2211" class="MsftOfcThm_Background1_Fill_v2" fill="#FFFFFF"/><path d="M184 600C184 616 190.333 630 203 642 215.667 654 230.333 660.333 247 661 259 661 269 657 277 649 285 641 289.333 631 290 619 290 603.667 283.333 589.667 270 577 256.667 564.333 242 557.667 226 557 216 557 206.667 560.333 198 567 189.333 573.667 184.667 584.667 184 600ZM21 287C21 292.333 24 302.667 30 318 36 333.333 44 350.333 54 369 64 387.667 78.6667 404.667 98 420 117.333 435.333 137.333 442.667 158 442 184 442 205.667 434.333 223 419 240.333 403.667 249.333 383 250 357 250 345.667 245.333 327 236 301 226.667 275 213.333 240 196 196 178.667 152 164.667 114.333 154 83 150.667 68.3333 149 57.6667 149 51 149 34.3333 154.667 26 166 26 172 26 178.333 27 185 29 191.667 31 199.333 35.6667 208 43 216.667 50.3333 225.667 62 235 78 244.333 94 252.667 113.667 260 137 262 145 263.667 149.667 265 151 266.333 152.333 272 153 282 153 295.333 153 302 149.667 302 143 302 137.667 299 127.333 293 112 287 96.6667 278.667 79.6667 268 61 257.333 42.3333 242.333 25.6667 223 11 203.667-3.66667 183-11 161-11 139.667-11 120-4 102 10 84 24 74.6667 45.3333 74 74 74 85.3333 75.6667 96 79 106 82.3333 116 96.6667 154 122 220 147.333 287.333 162 327.667 166 341 170 354.333 172.333 367.333 173 380 173 396 167.333 404 156 404L154 404C134 404 115.667 393 99 371 82.3333 349 69.6667 321 61 287 60.3333 286.333 59.6667 285.333 59 284 58.3333 282.667 58 281.667 58 281 58 280.333 57.3333 279.667 56 279 54.6667 278.333 53.6667 278 53 278 52.3333 278 51 278 49 278 47 278 44.3333 278 41 278L27 278C23 282 21 285 21 287Z" id="E1-MJMATHI-69" class="MsftOfcThm_Background1_Fill_v2" fill="#FFFFFF"/><path d="M56 347C56 355.667 60.6667 362.333 70 367L707 367C717 361.667 722 355 722 347 722 339.667 717.333 333.333 708 328L390 327 72 327C61.3333 330.333 56 337 56 347ZM56 153C56 163 61.3333 169.667 72 173L708 173C717.333 166.333 722 159.667 722 153 722 144.333 717 137.667 707 133L70 133C60.6667 137.667 56 144.333 56 153Z" id="E1-MJMAIN-3D" class="MsftOfcThm_Background1_Fill_v2" fill="#FFFFFF"/><path d="M96 585C133.333 639 184.333 666 249 666 281 666 313 657.333 345 640 377 622.667 403 592 423 548 447.667 492.667 460 416.667 460 320 460 216.667 445.667 137.667 417 83 403.667 55 385.333 32.6667 362 16 338.667-0.666667 318.333-11 301-15 283.667-19 266.667-21.3333 250-22 232.667-22 215.333-20 198-16 180.667-12 160.333-1.33333 137 16 113.667 33.3333 95.3333 55.6667 82 83 53.3333 137.667 39 216.667 39 320 39 436 58 524.333 96 585ZM321 597C301 618.333 277.333 629 250 629 222 629 198 618.333 178 597 161.333 579.667 150.333 555.667 145 525 139.667 494.333 137 430.333 137 333 137 227.667 139.667 158.333 145 125 150.333 91.6667 162.333 65.3333 181 46 199.667 26 222.667 16 250 16 276.667 16 299.333 26 318 46 337.333 66 349.333 94 354 130 358.667 166 361.333 233.667 362 333 362 429.667 359.333 493.333 354 524 348.667 554.667 337.667 579 321 597Z" id="E1-MJMAIN-30" class="MsftOfcThm_Background1_Fill_v2" fill="#FFFFFF"/><path d="M84 237C84 237 84 241.333 84 250 84 258.667 88.6667 265.333 98 270L679 270C689 264.667 694 258 694 250 694 242 689 235.333 679 230L98 230C88.6667 234.667 84 241.333 84 250Z" id="E1-MJMAIN-2212" class="MsftOfcThm_Background1_Fill_v2" fill="#FFFFFF"/><path d="M297 596C297 616.667 304 632.667 318 644 332 655.333 346.333 661 361 661 372.333 661 381.667 657.667 389 651 396.333 644.333 401 635 403 623 403 604.333 396.667 588.667 384 576 371.333 563.333 356.667 557 340 557 328 557 318 560.333 310 567 302 573.667 297.667 583.333 297 596ZM288 376C288 395.333 279.333 405 262 405 247.333 405 233.333 401 220 393 206.667 385 195 374.667 185 362 175 349.333 167 337 161 325 155 313 149.333 302.333 144 293L137 279C135.667 278.333 130.333 278 121 278L107 278C103 282 101 284.667 101 286 101 287.333 102.333 291.667 105 299 119 331.667 138.667 362.333 164 391 189.333 419.667 218.667 436.333 252 441 252.667 441 255.333 441 260 441 264.667 441 268.667 441.333 272 442 288 441.333 302.667 438 316 432 332.667 422.667 345.333 412.333 354 401 362.667 389.667 367 372 367 348L367 332 318 133C284-0.333333 266-69.6667 264-75 252-108.333 228.667-138 194-164 159.333-190 119.667-203.333 75-204 41.6667-204 19-197 7-183-5-169-11.3333-153.667-12-137-12-119-5.66667-103.667 7-91 19.6667-78.3333 35-71.6667 53-71 64.3333-71 74-74.3333 82-81 90-87.6667 94.3333-98 95-112 95-136 84.3333-154.333 63-167 67-167.667 71.6667-168 77-168 99.6667-168 120.333-158.667 139-140 157.667-121.333 172-99.3333 182-74L193-32C200.333-3.33333 209 31.3333 219 72 229 112.667 239.667 154.333 251 197 262.333 239.667 271.333 276.667 278 308 284.667 339.333 288.333 358.333 289 365 289 369.667 288.667 373.333 288 376Z" id="E1-MJMATHI-6A" class="MsftOfcThm_Background1_Fill_v2" fill="#FFFFFF"/><path d="M94 250C94 296 97.3333 339.667 104 381 110.667 422.333 118.333 458 127 488 135.667 518 148 547.333 164 576 180 604.667 192.667 627 202 643 211.333 659 225.333 676.333 244 695 262.667 713.667 273.667 725 277 729 280.333 733 288.667 740 302 750L315 750 319 750C328.333 750 333 747 333 741 333 739 327.333 732 316 720 304.667 708 291 690.333 275 667 259 643.667 242.667 615 226 581 209.333 547 195.333 501 184 443 172.667 385 167 320.667 167 250 167 179.333 172.667 115.333 184 58 195.333 0.666667 209-45.6667 225-81 241-116.333 257.333-145 274-167 290.667-189 304.667-206.667 316-220 327.333-233.333 333-240.333 333-241 333-247 328-250 318-250L315-250 302-250 274-226C211.333-169.333 165.667-98.6667 137-14 108.333 70.6667 94 158.667 94 250Z" id="E1-MJMAIN-28" class="MsftOfcThm_Background1_Fill_v2" fill="#FFFFFF"/><path d="M231 637C213 637 202.333 637.333 199 638 195.667 638.667 194 642.333 194 649 194 667 197.667 678 205 682 205.667 682.667 249 683 335 683 507.667 683 598.667 682.333 608 681 650 674.333 685 659.333 713 636 741 612.667 755.333 582 756 544 756 501.333 736.667 463 698 429 659.333 395 615 372 565 360L555 357C597.667 351 632.667 335.667 660 311 687.333 286.333 701.333 255.667 702 219 702 170.333 678 123.333 630 78 582 32.6667 523 7 453 1 448.333 0.333333 378 0 242 0 108.667 0 41 0.666667 39 2 36.3333 4 35 6.66667 35 10 35 14.6667 35.6667 19.3333 37 24 40.3333 36.6667 43.6667 43.6667 47 45 49.6667 45.6667 54.6667 46 62 46L68 46C86 46 106 47 128 49 137.333 51 143.667 55 147 61 149 63.6667 173 156.333 219 339 265 521.667 288 618 288 628 288 632.667 269 635.667 231 637ZM649 544C649 564 644 582.667 634 600 624 617.333 607.667 628.667 585 634 580.333 635.333 549.667 636.333 493 637 479.667 637 465.667 637 451 637 436.333 637 424.667 636.667 416 636L403 636C393 635.333 386.667 632 384 626 382.667 623.333 372 583.333 352 506 352 504 351.667 502 351 500L320 374 401 374C455 374 486 374.667 494 376 534 382.667 569.667 402 601 434 632.333 466 648.333 502.667 649 544ZM595 229C595 258.333 587.333 282.667 572 302 556.667 321.333 536.667 332.667 512 336 508 336.667 480.333 337 429 337 350.333 337 310.667 336.667 310 336 310 334.667 304.333 310.333 293 263 281.667 215.667 270 168.667 258 122L240 52C240 49.3333 244 48 252 48 260 48 287 47.3333 333 46 392.333 46 424.333 46.3333 429 47 470.333 51.6667 508.333 71 543 105 577.667 139 595 180.333 595 229Z" id="E1-MJMATHI-42" class="MsftOfcThm_Background1_Fill_v2" fill="#FFFFFF"/><path d="M69 544 69 590 430 590 430 544 69 544Z" id="E1-MJMAIN-AF" class="MsftOfcThm_Background1_Fill_v2" fill="#FFFFFF"/><path d="M60 749 64 750C67.3333 750 70.6667 750 74 750L86 750 114 726C176.667 669.333 222.333 598.667 251 514 279.667 429.333 294 341.333 294 250 294 204.667 290.667 161 284 119 277.333 77 269.667 41.3333 261 12 252.333-17.3333 240-46.6667 224-76 208-105.333 195.333-127.667 186-143 176.667-158.333 163-175.333 145-194 127-212.667 116.333-223.667 113-227 109.667-230.333 102-236.667 90-246 88-248 86.6667-249.333 86-250L74-250C68.6667-250 65-250 63-250 61-250 59.3333-249 58-247 56.6667-245 55.6667-242 55-238 55.6667-237.333 59.3333-233 66-225 169.333-117.667 221 40.6667 221 250 221 459.333 169.333 617.667 66 725 59.3333 733 55.6667 737.333 55 738 55 743.333 56.6667 747 60 749Z" id="E1-MJMAIN-29" class="MsftOfcThm_Background1_Fill_v2" fill="#FFFFFF"/><path d="M109 429C91 429 76.6667 435 66 447 55.3333 459 50 473.667 50 491 50 538.333 67.6667 579.333 103 614 138.333 648.667 182.333 666 235 666 295.667 666 346.333 647.333 387 610 427.667 572.667 448.333 524.333 449 465 449 436.333 442.333 409 429 383 415.667 357 399.667 334.333 381 315 362.333 295.667 335.667 271 301 241 277 220.333 243.667 189.667 201 149L142 93 218 92C322.667 92 378.333 93.6667 385 97 389.667 98.3333 397.667 128 409 186L409 189 449 189 449 186C448.333 184 444 153.667 436 95 428 36.3333 423 5.66667 421 3L421 0 50 0 50 19 50 31C50 35.6667 52 40.6667 56 46 60 51.3333 70 63 86 81 105.333 102.333 122 121 136 137 142 143.667 153.333 156 170 174 186.667 192 198 204.333 204 211 210 217.667 219.667 228.667 233 244 246.333 259.333 255.667 270.667 261 278 266.333 285.333 274 295.333 284 308 294 320.667 301 331.333 305 340 309 348.667 314 358.333 320 369 326 379.667 330.333 390.333 333 401 335.667 411.667 338 421.667 340 431 342 440.333 343 451.333 343 464 343 506 331.667 542.333 309 573 286.333 603.667 254 619 212 619 190 619 170.667 613.333 154 602 137.333 590.667 125.667 579.667 119 569 112.333 558.333 109 552 109 550 109 549.333 110.667 549 114 549 126 549 138.333 544.333 151 535 163.667 525.667 170 510.333 170 489 170 472.333 164.667 458.333 154 447 143.333 435.667 128.333 429.667 109 429Z" id="E1-MJMAIN-32" class="MsftOfcThm_Background1_Fill_v2" fill="#FFFFFF"/><path d="M702 589C704.667 597 710 602.333 718 605L1061 605C1071 599.667 1076 593 1076 585 1076 576.333 1071 569.667 1061 565L742 565 742 0C736.667-9.33333 730.667-14 724-14L722-14 720-14C712-14 706-9.33333 702 0L702 589Z" id="E1-MJSZ4-E001" class="MsftOfcThm_Background1_Fill_v2" fill="#FFFFFF"/><path d="M742-871C740.667-872.333 739-874 737-876 735-878 733.667-879.333 733-880 732.333-880.667 731.333-881.333 730-882 728.667-882.667 726.667-883.333 724-884 721.333-884.667 718-885 714-885L702-885 222 569 180 484C152 427.333 137.667 399 137 399 133 402.333 128.667 406.667 124 412L111 425 265 736 702-586 702 168 703 922C709.667 930.667 716 935 722 935 730 935 736.667 930 742 920L742-871Z" id="E1-MJSZ4-23B7" class="MsftOfcThm_Background1_Fill_v2" fill="#FFFFFF"/><path d="M722-14 720-14C712-14 706-9.33333 702 0L702 306 703 612C709.667 620.667 716 625 722 625 730 625 736.667 620 742 610L742 0C736.667-9.33333 730.667-14 724-14L722-14Z" id="E1-MJSZ4-E000" class="MsftOfcThm_Background1_Fill_v2" fill="#FFFFFF"/><path d="M78 60C78 76 83.6667 90 95 102 106.333 114 120.667 120 138 120 154 120 168 114.667 180 104 192 93.3333 198.333 79 199 61 199 44.3333 193.333 30 182 18 170.667 6 156.333 0 139 0 121.667 0 107.333 5.66667 96 17 84.6667 28.3333 78.6667 42.6667 78 60Z" id="E1-MJMAIN-2E" class="MsftOfcThm_Background1_Fill_v2" fill="#FFFFFF"/></defs><g stroke="currentColor" stroke-width="0" fill="currentColor" transform="scale(1 -1)"><g transform="matrix(1 0 0 1 0 1963)"><use y="-606" width="100%" height="100%" xlink:href="#E1-MJSZ4-E001" class="MsftOfcThm_Background1_Fill_v2" fill="#000000"></use><g transform="matrix(1 0 0 1.48872 0 -1502.94)"><use width="100%" height="100%" xlink:href="#E1-MJSZ4-E000" class="MsftOfcThm_Background1_Fill_v2" fill="#000000"></use></g><use y="-2412" width="100%" height="100%" xlink:href="#E1-MJSZ4-23B7" class="MsftOfcThm_Background1_Fill_v2" fill="#000000"></use></g><rect x="1056" y="1903" width="10424" height="60" class="MsftOfcThm_Background1_Fill_v2" stroke="none" fill="#FFFFFF"/><g transform="translate(1056 0)"><g transform="translate(120 0)"><rect x="0" y="220" width="2060" height="60" class="MsftOfcThm_Background1_Fill_v2" stroke="none" fill="#FFFFFF"/><use x="779" y="676" width="100%" height="100%" xlink:href="#E1-MJMAIN-31" class="MsftOfcThm_Background1_Fill_v2" fill="#000000"></use><g transform="translate(60 -705)"><use width="100%" height="100%" xlink:href="#E1-MJMATHI-4D" class="MsftOfcThm_Background1_Fill_v2" fill="#000000"></use><use x="1051" width="100%" height="100%" xlink:href="#E1-MJMATHI-4E" class="MsftOfcThm_Background1_Fill_v2" fill="#000000"></use></g></g><g transform="translate(2466 0)"><use x="44" width="100%" height="100%" xlink:href="#E1-MJSZ2-2211" class="MsftOfcThm_Background1_Fill_v2" fill="#000000"></use><g transform="translate(191 -1090)"><use width="100%" height="100%" xlink:href="#E1-MJMATHI-69" class="MsftOfcThm_Background1_Fill_v2" fill="#000000" transform="scale(0.707 0.707)"></use><use x="345" width="100%" height="100%" xlink:href="#E1-MJMAIN-3D" class="MsftOfcThm_Background1_Fill_v2" fill="#000000" transform="scale(0.707 0.707)"></use><use x="1124" width="100%" height="100%" xlink:href="#E1-MJMAIN-30" class="MsftOfcThm_Background1_Fill_v2" fill="#000000" transform="scale(0.707 0.707)"></use></g><g transform="matrix(1 0 0 1 0 1151)"><use width="100%" height="100%" xlink:href="#E1-MJMATHI-4E" class="MsftOfcThm_Background1_Fill_v2" fill="#000000" transform="scale(0.707 0.707)"></use><use x="888" width="100%" height="100%" xlink:href="#E1-MJMAIN-2212" class="MsftOfcThm_Background1_Fill_v2" fill="#000000" transform="scale(0.707 0.707)"></use><use x="1667" width="100%" height="100%" xlink:href="#E1-MJMAIN-31" class="MsftOfcThm_Background1_Fill_v2" fill="#000000" transform="scale(0.707 0.707)"></use></g></g><g transform="translate(4165 0)"><use x="101" width="100%" height="100%" xlink:href="#E1-MJSZ2-2211" class="MsftOfcThm_Background1_Fill_v2" fill="#000000"></use><g transform="translate(225 -1090)"><use width="100%" height="100%" xlink:href="#E1-MJMATHI-6A" class="MsftOfcThm_Background1_Fill_v2" fill="#000000" transform="scale(0.707 0.707)"></use><use x="412" width="100%" height="100%" xlink:href="#E1-MJMAIN-3D" class="MsftOfcThm_Background1_Fill_v2" fill="#000000" transform="scale(0.707 0.707)"></use><use x="1191" width="100%" height="100%" xlink:href="#E1-MJMAIN-30" class="MsftOfcThm_Background1_Fill_v2" fill="#000000" transform="scale(0.707 0.707)"></use></g><g transform="matrix(1 0 0 1 0 1151)"><use width="100%" height="100%" xlink:href="#E1-MJMATHI-4D" class="MsftOfcThm_Background1_Fill_v2" fill="#000000" transform="scale(0.707 0.707)"></use><use x="1051" width="100%" height="100%" xlink:href="#E1-MJMAIN-2212" class="MsftOfcThm_Background1_Fill_v2" fill="#000000" transform="scale(0.707 0.707)"></use><use x="1830" width="100%" height="100%" xlink:href="#E1-MJMAIN-31" class="MsftOfcThm_Background1_Fill_v2" fill="#000000" transform="scale(0.707 0.707)"></use></g></g><use x="5813" width="100%" height="100%" xlink:href="#E1-MJMAIN-28" class="MsftOfcThm_Background1_Fill_v2" fill="#000000"></use><g transform="translate(6203 0)"><use width="100%" height="100%" xlink:href="#E1-MJMATHI-42" class="MsftOfcThm_Background1_Fill_v2" fill="#000000"></use><g transform="translate(759 -150)"><use width="100%" height="100%" xlink:href="#E1-MJMATHI-69" class="MsftOfcThm_Background1_Fill_v2" fill="#000000" transform="scale(0.707 0.707)"></use><use x="345" width="100%" height="100%" xlink:href="#E1-MJMATHI-6A" class="MsftOfcThm_Background1_Fill_v2" fill="#000000" transform="scale(0.707 0.707)"></use></g></g><use x="7821" width="100%" height="100%" xlink:href="#E1-MJMAIN-2212" class="MsftOfcThm_Background1_Fill_v2" fill="#000000"></use><g transform="translate(8821 0)"><use width="100%" height="100%" xlink:href="#E1-MJMATHI-42" class="MsftOfcThm_Background1_Fill_v2" fill="#000000"></use><use x="212" y="248" width="100%" height="100%" xlink:href="#E1-MJMAIN-AF" class="MsftOfcThm_Background1_Fill_v2" fill="#000000"></use></g><g transform="translate(9581 0)"><use width="100%" height="100%" xlink:href="#E1-MJMAIN-29" class="MsftOfcThm_Background1_Fill_v2" fill="#000000"></use><use x="550" y="583" width="100%" height="100%" xlink:href="#E1-MJMAIN-32" class="MsftOfcThm_Background1_Fill_v2" fill="#000000" transform="scale(0.707 0.707)"></use></g></g><use x="11481" width="100%" height="100%" xlink:href="#E1-MJMAIN-2E" class="MsftOfcThm_Background1_Fill_v2" fill="#000000"></use></g></svg>