<?xml version="1.0" encoding="UTF-8" standalone="no"?>
<!-- Created with Inkscape (http://www.inkscape.org/) -->
<svg
   xmlns:svg="http://www.w3.org/2000/svg"
   xmlns="http://www.w3.org/2000/svg"
   xmlns:inkscape="http://www.inkscape.org/namespaces/inkscape"
   version="1.0"
   width="2308.302"
   height="2143.7104"
   id="svg4674">
  <defs
     id="defs4676">
    <filter
       id="filter5327"
       height="2.0840073"
       y="-0.54200369"
       width="2.3437903"
       x="-0.67189521">
      <feGaussianBlur
         id="feGaussianBlur5329"
         stdDeviation="7.4094287"
         inkscape:collect="always" />
    </filter>
    <filter
       id="filter5525"
       height="1.4025005"
       y="-0.20125026"
       width="1.4989603"
       x="-0.24948014">
      <feGaussianBlur
         id="feGaussianBlur5527"
         stdDeviation="3.2029119"
         inkscape:collect="always" />
    </filter>
    <filter
       id="filter5769"
       height="1.4482396"
       y="-0.2241198"
       width="1.5556597"
       x="-0.27782986">
      <feGaussianBlur
         id="feGaussianBlur5771"
         stdDeviation="1.9644482"
         inkscape:collect="always" />
    </filter>
    <filter
       id="filter5847">
      <feGaussianBlur
         id="feGaussianBlur5849"
         stdDeviation="3.0687579"
         inkscape:collect="always" />
    </filter>
    <filter
       id="filter5909"
       height="1.2405071"
       y="-0.12025357"
       width="1.5244671"
       x="-0.26223356">
      <feGaussianBlur
         id="feGaussianBlur5911"
         stdDeviation="12.74152"
         inkscape:collect="always" />
    </filter>
    <filter
       id="filter5941"
       height="1.2168463"
       y="-0.10842317"
       width="1.4291284"
       x="-0.21456419">
      <feGaussianBlur
         id="feGaussianBlur5943"
         stdDeviation="12.09129"
         inkscape:collect="always" />
    </filter>
    <filter
       id="filter6089"
       height="2.0840073"
       y="-0.54200363"
       width="2.3437903"
       x="-0.67189521">
      <feGaussianBlur
         id="feGaussianBlur6091"
         stdDeviation="15.262799"
         inkscape:collect="always" />
    </filter>
  </defs>
  <g
     transform="translate(791.29383,505.20734)"
     id="layer1">
    <rect
       width="275.02945"
       height="612"
       rx="2.5149136"
       ry="2.5149145"
       x="1134.8965"
       y="-503.70731"
       style="opacity:1;fill:#ffffff;fill-opacity:1;stroke:#8e8e8e;stroke-width:3;stroke-miterlimit:4;stroke-dasharray:none;stroke-dashoffset:0;stroke-opacity:1"
       id="rect5243" />
    <rect
       width="292"
       height="612"
       rx="2.5149136"
       ry="2.5149145"
       x="738.91669"
       y="-503.70734"
       style="opacity:1;fill:#ffffff;fill-opacity:1;stroke:#8e8e8e;stroke-width:3;stroke-miterlimit:4;stroke-dasharray:none;stroke-dashoffset:0;stroke-opacity:1"
       id="rect5233" />
    <path
       d="M 203.2225,-309.66849 L 715.08318,-14.14559 L 715.08318,497.71732 L 203.2225,202.19442 L 203.2225,-309.66849 z "
       style="fill:#ffffff;fill-opacity:1;stroke:#000000;stroke-width:4.53607273;stroke-miterlimit:4;stroke-dashoffset:0;stroke-opacity:1"
       id="rect11427" />
    <path
       d="M 1288.7044,38.65304 C 1294.8504,49.572294 1304.9849,64.054822 1319.108,82.100669 C 1334.6038,100.27749 1342.548,111.22929 1342.9404,114.9561 C 1345.4903,120.5138 1346.7652,125.90797 1346.7654,131.13862 L 1346.7654,135.06166 C 1346.7652,145.98082 1341.4691,154.5788 1330.8771,160.85563 C 1327.4116,162.29409 1323.5867,163.01332 1319.4022,163.0133 C 1309.333,163.01332 1301.1927,155.7884 1294.9813,141.33852 L 1290.8621,141.33852 L 1290.8621,142.51543 C 1290.862,161.01911 1293.5755,175.17472 1299.0024,184.9823 L 1277.9161,184.9823 L 1277.9161,184.39384 C 1283.4736,174.52088 1286.2525,160.26719 1286.2526,141.63275 L 1285.9583,141.33852 L 1282.2314,141.33852 L 1277.6219,149.9692 C 1272.0642,158.66529 1265.1335,163.01332 1256.8298,163.0133 C 1244.6029,163.01332 1236.005,156.1807 1231.0358,142.51543 L 1230.1531,135.35589 L 1230.1531,130.8444 C 1230.1531,118.8792 1236.2665,106.26011 1248.4933,92.987095 C 1269.0892,67.749011 1282.2967,49.735753 1288.116,38.947268 L 1288.4102,38.65304 L 1288.7044,38.65304"
       transform="matrix(1.0108655,0.6075949,0,-0.9892513,-764.13872,-554.20164)"
       style="font-size:200.85946655px;font-style:normal;font-weight:normal;fill:#000000;fill-opacity:1;stroke:none;stroke-width:1px;stroke-linecap:butt;stroke-linejoin:miter;stroke-opacity:1;filter:url(#filter5909);font-family:Bitstream Vera Sans"
       id="text5857" />
    <g
       transform="translate(1126.2544,-503.03228)"
       style="fill:#bcebeb;fill-opacity:0.2126697"
       id="g18334">
      <path
         d="M -1187.8231,972.90828 C -1307.5552,818.9096 -1335.8479,636.51982 -1250.9766,565.78823 C -1166.1053,495.05665 -1000.0503,562.63575 -880.31825,716.63444 C -760.58618,870.63312 -732.29341,1053.0229 -817.16475,1123.7545 C -901.95187,1194.4159 -1067.7395,1127.0785 -1187.4848,973.34298"
         style="fill:#bcebeb;fill-opacity:0.42081448;stroke:#000000;stroke-width:3;stroke-miterlimit:4;stroke-dashoffset:0;stroke-opacity:1"
         id="path11356" />
      <path
         d="M 732.24822,534.41968 L 758.46875,519.28125 C 775.55967,511.40563 795.20054,507.50204 815.78125,507.34375 C 903.17459,506.67159 1013.103,572.65721 1101.0312,685.75 C 1210.571,826.63935 1243.5705,991.29492 1183.4062,1072.4688 L 1155.4606,1100.4144"
         transform="translate(-1967.3378,18.871087)"
         style="fill:none;fill-opacity:0.2126697;stroke:#000000;stroke-width:3;stroke-miterlimit:4;stroke-dashoffset:0;stroke-opacity:1"
         id="path18329" />
    </g>
    <path
       d="M 957.27597,121.76065 L 1469.1367,417.28357 L 1469.1367,929.14641 L 957.27597,633.62349 L 957.27597,121.76065 z "
       style="fill:#ffffff;fill-opacity:1;stroke:#000000;stroke-width:4.53607273;stroke-miterlimit:4;stroke-dashoffset:0;stroke-opacity:1"
       id="rect15447" />
    <path
       d="M 1108.41,489.03957 L 694.75247,694.80761"
       style="fill:none;fill-rule:evenodd;stroke:#0000ff;stroke-width:4;stroke-linecap:butt;stroke-linejoin:miter;stroke-miterlimit:4;stroke-dasharray:8, 4;stroke-dashoffset:0;stroke-opacity:1"
       id="path18584" />
    <path
       d="M 1127.7968,569.46891 C 1131.618,574.9749 1132.521,580.9355 1129.8123,582.7739 C 1127.1036,584.6123 1121.804,581.6356 1117.9828,576.12963 C 1114.1615,570.62362 1113.2586,564.66299 1115.9672,562.82463 C 1118.6732,560.9881 1123.9643,563.9557 1127.786,569.45336"
       style="fill:#000000;fill-opacity:1;stroke:none;stroke-width:3;stroke-miterlimit:4;stroke-dashoffset:0;stroke-opacity:1;filter:url(#filter5769)"
       id="path5773" />
    <path
       d="M 1114.774,563.28581 L 1006.5866,869.46301"
       style="fill:none;fill-rule:evenodd;stroke:#00ff00;stroke-width:4;stroke-linecap:butt;stroke-linejoin:miter;stroke-miterlimit:4;stroke-dasharray:8, 4;stroke-dashoffset:0;stroke-opacity:1"
       id="path18588" />
    <path
       d="M 1126.7948,502.4746 L 1005.8795,868.04881"
       style="fill:none;fill-rule:evenodd;stroke:#0000ff;stroke-width:4;stroke-linecap:butt;stroke-linejoin:miter;stroke-miterlimit:4;stroke-dasharray:8, 4;stroke-dashoffset:0;stroke-opacity:1"
       id="path18586" />
    <path
       d="M 690.50987,694.10051 L 1106.9958,395.70147"
       style="fill:none;fill-rule:evenodd;stroke:#ff0000;stroke-width:4;stroke-linecap:butt;stroke-linejoin:miter;stroke-miterlimit:4;stroke-dasharray:8, 4;stroke-dashoffset:0;stroke-opacity:1"
       id="path18580" />
    <path
       d="M 1124.6735,412.67203 L 1005.8795,866.63461"
       style="fill:none;fill-rule:evenodd;stroke:#ff0000;stroke-width:4;stroke-linecap:butt;stroke-linejoin:miter;stroke-miterlimit:4;stroke-dasharray:8, 4;stroke-dashoffset:0;stroke-opacity:1"
       id="path18582" />
    <path
       d="M 1130.3303,583.08481 L 693.33827,698.34321"
       style="fill:none;fill-rule:evenodd;stroke:#00ff00;stroke-width:4;stroke-linecap:butt;stroke-linejoin:miter;stroke-miterlimit:4;stroke-dasharray:8, 4;stroke-dashoffset:0;stroke-opacity:1"
       id="path18590" />
    <g
       transform="translate(1880.2544,-71.032276)"
       style="fill:#bcebeb;fill-opacity:0.21176471"
       id="g18338">
      <path
         d="M -1187.8231,972.90828 C -1307.5552,818.9096 -1335.8479,636.51982 -1250.9766,565.78823 C -1166.1053,495.05665 -1000.0503,562.63575 -880.31825,716.63444 C -760.58618,870.63312 -732.29341,1053.0229 -817.16475,1123.7545 C -901.95187,1194.4159 -1067.7395,1127.0785 -1187.4848,973.34298"
         style="fill:#bcebeb;fill-opacity:0.21176471;stroke:#000000;stroke-width:3;stroke-miterlimit:4;stroke-dashoffset:0;stroke-opacity:1"
         id="path18340" />
      <path
         d="M 732.24822,534.41968 L 758.46875,519.28125 C 775.55967,511.40563 795.20054,507.50204 815.78125,507.34375 C 903.17459,506.67159 1013.103,572.65721 1101.0312,685.75 C 1210.571,826.63935 1243.5705,991.29492 1183.4062,1072.4688 L 1155.4606,1100.4144"
         transform="translate(-1967.3378,18.871087)"
         style="fill:none;fill-opacity:0.21176471;stroke:#000000;stroke-width:3;stroke-miterlimit:4;stroke-dashoffset:0;stroke-opacity:1"
         id="path18342" />
    </g>
    <g
       transform="matrix(1,0.5773503,0,1,62.765773,-956.03415)"
       style="fill:#a1a1a1;fill-opacity:1"
       id="g16940">
      <path
         d="M 552.91522,1141.5685 C 529.22876,1182.6768 516.58273,1229.7134 516.85824,1277.646 C 517.07095,1314.6321 524.97022,1352.1678 541.40303,1387.9457 C 565.12049,1439.5841 603.1933,1480.0907 648.71468,1506.9515 L 649.05733,1506.608 C 589.70478,1323.7385 622.25551,1246.1551 649.83276,1198.3899 C 650.01231,1198.079 650.19813,1197.7553 650.37966,1197.4427 C 678.08385,1149.7422 729.53239,1083.4097 916.35418,1043.6363 C 916.25504,1043.3004 915.63604,1042.2072 914.71648,1040.5979 C 842.72039,1001.1168 753.62781,994.987 673.33871,1031.8638 C 620.7901,1055.9995 579.75989,1094.9792 552.91522,1141.5685 z "
         style="fill:#a1a1a1;fill-opacity:1;fill-rule:evenodd;stroke:#000000;stroke-width:1px;stroke-linecap:butt;stroke-linejoin:miter;stroke-opacity:1"
         id="path16905" />
      <path
         d="M 2751.4062,988.84375 C 2703.9622,988.88479 2656.9043,1001.4513 2615.5312,1025.6562 C 2583.6066,1044.3335 2555.0494,1069.9423 2532.2812,1102.0625 C 2499.4198,1148.4216 2483.3765,1201.6469 2482.875,1254.5 L 2483.3438,1254.625 C 2612.0372,1111.7894 2695.5017,1101.1875 2750.6562,1101.1875 C 2751.0153,1101.1875 2751.3885,1101.1866 2751.75,1101.1875 C 2806.9119,1101.3298 2890.0818,1112.7193 3017.9375,1254.625 C 3018.1788,1254.3712 3018.8161,1253.2885 3019.75,1251.6875 C 3017.9436,1169.5965 2978.7058,1089.3752 2906.625,1038.2812 C 2859.4486,1004.8406 2805.1761,988.79724 2751.4062,988.84375 z "
         transform="translate(-1967.3378,18.871087)"
         style="fill:#a1a1a1;fill-opacity:1;fill-rule:evenodd;stroke:#000000;stroke-width:1px;stroke-linecap:butt;stroke-linejoin:miter;stroke-opacity:1"
         id="path16878" />
      <path
         d="M 1016.1279,1140.1424 C 992.37034,1099.0752 957.95847,1064.6051 916.30986,1040.8774 C 884.17255,1022.5685 847.71608,1010.6417 808.51507,1006.9839 C 751.93621,1001.7047 697.8201,1014.4234 651.79722,1040.4157 L 651.92337,1040.8842 C 839.96932,1080.9181 890.88309,1147.8995 918.46034,1195.6647 C 918.63989,1195.9757 918.82727,1196.2985 919.00724,1196.612 C 946.46495,1244.4548 978.18631,1322.1767 919.22022,1503.8559 C 919.56066,1503.938 920.81696,1503.9485 922.67042,1503.9568 C 992.86011,1461.3469 1042.7149,1387.2553 1050.9232,1299.2845 C 1056.2954,1241.7083 1043.0531,1186.6852 1016.1279,1140.1424 z "
         style="fill:#a1a1a1;fill-opacity:1;fill-rule:evenodd;stroke:#000000;stroke-width:1px;stroke-linecap:butt;stroke-linejoin:miter;stroke-opacity:1"
         id="path16892" />
      <path
         d="M 1016.8596,1408.5877 C 1040.6935,1367.5649 1053.5085,1320.574 1053.4052,1272.6407 C 1053.3254,1235.654 1045.561,1198.0902 1029.2569,1162.2535 C 1005.725,1110.5303 967.79805,1069.8872 922.37341,1042.8629 L 922.02952,1043.2052 C 980.72474,1226.2868 947.8955,1303.7527 920.14682,1351.4185 C 919.96614,1351.7288 919.77912,1352.0518 919.59648,1352.3638 C 891.72106,1399.9644 840.03462,1466.1116 653.07108,1505.2136 C 653.16899,1505.5498 653.78412,1506.6453 654.69787,1508.2579 C 726.55166,1547.9974 815.62167,1554.4472 896.04274,1517.8591 C 948.67766,1493.9124 989.8477,1455.0803 1016.8596,1408.5877 z "
         style="fill:#a1a1a1;fill-opacity:1;fill-rule:evenodd;stroke:#000000;stroke-width:1px;stroke-linecap:butt;stroke-linejoin:miter;stroke-opacity:1"
         id="path16894" />
      <path
         d="M 784.22342,1542.6101 C 831.6672,1542.7395 878.77,1530.3421 920.2298,1506.286 C 952.2213,1487.7236 980.8703,1462.2175 1003.7537,1430.1794 C 1036.7814,1383.9386 1053.0159,1330.7713 1053.7073,1277.9203 L 1053.2389,1277.7936 C 924.0332,1420.1659 840.5311,1430.4679 785.37701,1430.2698 C 785.01794,1430.2685 784.6447,1430.268 784.28318,1430.2658 C 729.12214,1429.9253 645.99377,1418.2371 518.64867,1275.873 C 518.40647,1276.1258 517.7653,1277.2063 516.82563,1278.8039 C 518.3371,1360.9009 557.28642,1441.2627 629.18318,1492.6153 C 676.23909,1526.2252 730.45369,1542.4634 784.22342,1542.6101 z "
         style="fill:#a1a1a1;fill-opacity:1;fill-rule:evenodd;stroke:#000000;stroke-width:1px;stroke-linecap:butt;stroke-linejoin:miter;stroke-opacity:1"
         id="path16896" />
      <path
         d="M 2486.2188,1254.5938 C 2485.9519,1303.4871 2498.9608,1349.8732 2522.1562,1389.9688 C 2545.914,1431.0359 2580.3202,1465.5223 2621.9688,1489.25 C 2654.1061,1507.5589 2690.5803,1519.4673 2729.7812,1523.125 C 2786.36,1528.4043 2840.4772,1515.7111 2886.5,1489.7188 L 2886.375,1489.25 C 2698.3291,1449.2161 2647.3898,1382.234 2619.8125,1334.4688 C 2619.6329,1334.1579 2619.4612,1333.8135 2619.2812,1333.5 C 2608.0358,1313.9058 2593.9379,1288.5932 2587.7849,1253.8867 L 2486.2188,1254.5938 z "
         transform="translate(-1967.3378,18.871087)"
         style="opacity:1;fill:#a1a1a1;fill-opacity:1;stroke:#000000;stroke-width:1;stroke-miterlimit:5;stroke-dasharray:none;stroke-dashoffset:0;stroke-opacity:1"
         id="rect16932" />
      <path
         d="M 2484.2188,1254.4688 C 2484.2039,1255.9025 2484.1792,1257.3458 2484.1875,1258.7812 C 2484.4002,1295.7674 2492.3172,1333.2846 2508.75,1369.0625 C 2532.4676,1420.7009 2570.5411,1461.233 2616.0625,1488.0938 L 2616.4062,1487.75 C 2580.4313,1376.9082 2578.2071,1304.7543 2588.1875,1254.4688 L 2484.2188,1254.4688 z "
         transform="translate(-1967.3378,18.871087)"
         style="opacity:1;fill:#a1a1a1;fill-opacity:1;stroke:#000000;stroke-width:1;stroke-miterlimit:5;stroke-dasharray:none;stroke-dashoffset:0;stroke-opacity:1"
         id="rect16927" />
      <path
         d="M 2486.1874,1260.2861 L 2485.1268,1253.9221 L 2538.8669,1234.8303 L 2587.6573,1242.6084 L 2587.3037,1257.1041 L 2509.8755,1270.5392 L 2486.1874,1260.2861 z "
         transform="translate(-1967.3378,18.871087)"
         style="fill:#a1a1a1;fill-opacity:1;fill-rule:evenodd;stroke:none;stroke-width:1px;stroke-linecap:butt;stroke-linejoin:miter;stroke-opacity:1"
         id="path16938" />
    </g>
    <path
       d="M -590.68823,146.37019 L -78.827627,441.89309 L -78.827627,953.75602 L -590.68823,658.23312 L -590.68823,146.37019 z "
       style="opacity:1;fill:#ff6300;fill-opacity:0.11711713;stroke:#000000;stroke-width:2;stroke-miterlimit:4;stroke-dasharray:none;stroke-dashoffset:0;stroke-opacity:0.38009051"
       id="rect11465" />
    <path
       d="M 410.83429,285.8716 C 428.02979,273.68263 432.09309,249.83432 419.90419,232.63875 C 407.71519,215.44319 383.86689,211.37986 366.67129,223.56883 C 349.47579,235.7578 345.41239,259.60612 357.60139,276.80168 C 369.77829,293.98018 393.58819,298.05607 410.78569,285.90598"
       style="fill:#ffffff;fill-opacity:1;fill-rule:nonzero;stroke:none;stroke-width:2;stroke-linecap:butt;stroke-miterlimit:4;stroke-dashoffset:0;stroke-opacity:1"
       id="path10485" />
    <path
       d="M -620.57993,754.68942 L 471.76035,124.02648"
       style="fill:none;fill-rule:evenodd;stroke:#000000;stroke-width:1px;stroke-linecap:butt;stroke-linejoin:miter;stroke-opacity:1"
       id="path11346" />
    <path
       d="M -424.68823,52.37014 L 87.172373,347.89304 L 87.172373,859.75592 L -424.68823,564.23302 L -424.68823,52.37014 z "
       style="opacity:1;fill:#ff6300;fill-opacity:0.11711713;stroke:#000000;stroke-width:2;stroke-miterlimit:4;stroke-dasharray:none;stroke-dashoffset:0;stroke-opacity:0.38009051"
       id="rect11411" />
    <path
       d="M -495.70023,401.16093 C -482.22093,408.9433 -471.63003,422.86006 -463.92743,442.91126 C -461.13863,450.69678 -459.67783,456.25457 -459.54493,459.5849 L -459.24613,459.75741 C -456.92223,450.34222 -452.70573,443.84571 -446.59683,440.26769 C -439.42563,437.23688 -431.35793,438.30907 -422.39363,443.48451 C -408.51603,451.49685 -397.39393,465.3551 -389.02723,485.05931 C -386.90263,491.79725 -385.84013,497.59002 -385.84003,502.43722 C -385.84013,519.03752 -392.74583,530.88712 -406.55703,537.98612 L -459.24613,570.81282 L -459.84373,570.46782 L -515.81963,469.52478 C -526.97503,449.47211 -532.55273,432.20802 -532.55273,417.73262 C -532.55273,403.72212 -525.94583,396.41452 -512.73203,395.80961 C -507.15443,396.04194 -501.47713,397.82573 -495.70023,401.16093"
       style="font-size:203.9834137px;font-style:normal;font-weight:normal;fill:#ff0000;fill-opacity:1;stroke:none;stroke-width:1px;stroke-linecap:butt;stroke-linejoin:miter;stroke-opacity:1;font-family:Bitstream Vera Sans"
       id="text11332" />
    <path
       d="M -259.74243,266.70173 C -245.53273,274.90583 -235.07463,288.48033 -228.36803,307.42523 C -227.50493,311.37651 -226.97373,315.26884 -226.77443,319.10225 C -226.77453,326.87118 -230.75863,333.7675 -238.72653,339.79122 L -244.70263,342.31701 L -244.40383,342.48952 C -239.49033,343.46722 -234.24463,345.5662 -228.66683,348.78645 L -226.77443,349.87904 C -210.97113,359.00315 -199.88223,372.11182 -193.50763,389.20512 C -191.98053,394.46927 -191.21693,399.09339 -191.21673,403.07748 C -191.21693,416.6896 -198.15583,422.94235 -212.03343,421.83577 C -214.68963,421.09906 -218.37483,419.56899 -223.08913,417.24556 C -239.15833,407.96807 -250.54603,392.29645 -257.25243,370.23065 L -257.55123,370.05814 L -257.55123,370.95455 C -257.55133,393.73 -254.82893,410.30838 -249.38393,420.68973 L -249.38393,421.28733 L -270.10103,409.32632 L -270.69863,408.38369 C -265.05463,403.14295 -262.23253,389.46686 -262.23253,367.35541 L -262.23253,367.0566 L -262.53133,366.88409 C -269.17143,381.44345 -280.62563,384.02692 -296.89373,374.63448 C -309.57633,367.3122 -319.30403,355.02262 -326.07693,337.76571 C -327.73693,332.29207 -328.56693,327.62961 -328.56693,323.77833 C -328.56693,308.30698 -320.39963,302.53105 -304.06503,306.45052 C -299.68263,308.18397 -295.79813,310.02825 -292.41163,311.98336 L -291.51523,312.5009 C -285.80483,315.7979 -280.36003,319.8711 -275.18063,324.72054 L -274.88183,324.89305 L -274.88183,324.59424 C -280.45963,316.65956 -284.21123,309.84549 -286.13683,304.15202 C -290.12093,294.5478 -292.11293,287.05643 -292.11283,281.67788 L -292.11283,280.28346 C -292.11293,266.93699 -284.97483,260.93205 -270.69863,262.26861 C -265.98423,263.729 -262.33213,265.20669 -259.74243,266.70173"
       style="font-size:203.9834137px;font-style:normal;font-weight:normal;fill:#000000;fill-opacity:1;stroke:none;stroke-width:1px;stroke-linecap:butt;stroke-linejoin:miter;stroke-opacity:1;font-family:Bitstream Vera Sans"
       id="text11382" />
    <path
       d="M -569.35553,577.88612 C -563.11393,592.57882 -552.82183,613.22862 -538.47913,639.83602 C -522.74233,667.38112 -514.67463,683.16112 -514.27603,687.17612 C -511.68653,694.31522 -510.39173,700.54092 -510.39163,705.85292 L -510.39163,709.83692 C -510.39173,720.92592 -515.77023,726.55232 -526.52703,726.71632 C -530.04633,726.14532 -533.93083,724.63302 -538.18033,722.17952 C -548.40623,716.27562 -556.67313,704.16542 -562.98103,685.84892 L -567.16433,683.43372 L -567.16433,684.62892 C -567.16443,703.42032 -564.40873,719.38712 -558.89743,732.52922 L -580.31163,720.16572 L -580.31163,719.56812 C -574.66773,712.80012 -571.84563,699.95402 -571.84553,681.02982 L -572.14433,680.55852 L -575.92923,678.37332 L -580.61053,684.43542 C -586.25463,690.00822 -593.29313,690.36012 -601.72593,685.49142 C -614.14293,678.32252 -622.87463,666.34242 -627.92113,649.55092 L -628.81753,641.76262 L -628.81753,637.18092 C -628.81753,625.02962 -622.60903,615.79882 -610.19203,609.48822 C -589.27583,595.93362 -575.86293,585.38412 -569.95313,577.83992 L -569.65433,577.71362 L -569.35553,577.88612"
       style="font-size:203.9834137px;font-style:normal;font-weight:normal;fill:#000000;fill-opacity:1;stroke:none;stroke-width:1px;stroke-linecap:butt;stroke-linejoin:miter;stroke-opacity:1;font-family:Bitstream Vera Sans"
       id="text11386" />
    <path
       d="M 627.71375,282.69528 C 614.23445,274.91285 603.64353,260.99609 595.94095,240.94494 C 593.1522,233.15946 591.69138,227.6016 591.55849,224.27135 L 591.25969,224.09884 C 588.93575,233.51393 584.7193,240.01046 578.61033,243.58847 C 571.43914,246.61933 563.37145,245.54708 554.40722,240.37173 C 540.52958,232.35932 529.40745,218.50107 521.04079,198.79693 C 518.91612,192.05886 517.85371,186.26621 517.85355,181.41898 C 517.85371,164.81876 524.75939,152.96917 538.57061,145.87017 L 591.25969,113.04341 L 591.8573,113.38844 L 647.83321,214.33143 C 658.98858,234.38408 664.56624,251.64811 664.56623,266.12359 C 664.56624,280.13405 657.95937,287.4417 644.74557,288.04655 C 639.16794,287.81419 633.49068,286.03044 627.71375,282.69528"
       style="font-size:203.9834137px;font-style:normal;font-weight:normal;fill:#ff0000;fill-opacity:1;stroke:none;stroke-width:1px;stroke-linecap:butt;stroke-linejoin:miter;stroke-opacity:1;font-family:Bitstream Vera Sans"
       id="text11433" />
    <path
       d="M 1288.6064,38.65304 C 1302.5984,38.653186 1312.8964,46.074256 1319.5003,60.916272 C 1320.3502,64.316357 1320.8732,67.847087 1321.0695,71.50847 C 1321.0694,79.158497 1317.1463,88.214164 1309.3004,98.675498 L 1303.4158,104.56005 L 1303.7101,104.56005 C 1308.5484,102.72938 1313.7137,101.81401 1319.2061,101.81393 L 1321.0695,101.81393 C 1336.6307,101.81401 1347.5498,108.41778 1353.8269,121.62526 C 1355.3305,125.94066 1356.0824,130.05984 1356.0826,133.98283 C 1356.0824,147.38657 1349.2498,157.48838 1335.5847,164.28828 C 1332.9692,165.07291 1329.3404,165.66136 1324.6983,166.05365 C 1308.8753,166.05367 1297.6619,157.09608 1291.0583,139.18085 L 1290.764,139.18085 L 1290.764,140.06353 C 1290.7639,162.49025 1293.4447,177.267 1298.8063,184.39384 L 1298.8063,184.9823 L 1278.4065,184.9823 L 1277.818,184.39384 C 1283.3756,176.02471 1286.1544,160.95373 1286.1545,139.18085 L 1286.1545,138.88662 L 1285.8602,138.88662 C 1279.3218,156.998 1268.0431,166.05367 1252.0241,166.05365 C 1239.5357,166.05367 1229.9569,159.48259 1223.2878,146.34039 C 1221.6532,141.89433 1220.8359,137.77514 1220.8359,133.98283 C 1220.8359,118.74843 1228.8781,108.41778 1244.9626,102.99084 C 1249.2779,102.20631 1253.1028,101.81401 1256.4375,101.81393 L 1257.3202,101.81393 C 1262.9431,101.81401 1268.3046,102.72938 1273.4046,104.56005 L 1273.6988,104.56005 L 1273.6988,104.26582 C 1268.2065,99.62365 1264.5123,95.046779 1262.6163,90.535197 C 1258.6932,83.343065 1256.7316,77.098905 1256.7317,71.802698 L 1256.7317,70.429635 C 1256.7316,57.287591 1263.7604,47.31655 1277.818,40.516482 C 1282.4602,39.274333 1286.0563,38.653186 1288.6064,38.65304"
       transform="matrix(1.0108655,0.6075949,0,-0.9892513,-760.92125,-428.72201)"
       style="font-size:200.85946655px;font-style:normal;font-weight:normal;fill:#000000;fill-opacity:1;stroke:none;stroke-width:1px;stroke-linecap:butt;stroke-linejoin:miter;stroke-opacity:1;filter:url(#filter5941);font-family:Bitstream Vera Sans"
       id="text5913" />
    <path
       d="M -212.53663,639.98492 C -216.35783,635.07002 -217.26073,629.24912 -214.55213,626.99172 C -211.84343,624.73432 -206.54383,626.89112 -202.72263,631.80592 C -198.90133,636.72082 -197.99843,642.54172 -200.70703,644.79912 C -203.41303,647.05432 -208.70413,644.90522 -212.52583,639.99882"
       style="fill:#ff0000;fill-opacity:1;stroke:none;stroke-width:3;stroke-miterlimit:4;stroke-dashoffset:0;stroke-opacity:1"
       id="path11655" />
    <path
       d="M -377.99963,654.12702 C -381.82083,649.21222 -382.72373,643.39122 -380.01513,641.13382 C -377.30643,638.87642 -372.00683,641.03322 -368.18563,645.94812 C -364.36433,650.86292 -363.46143,656.68392 -366.17003,658.94132 C -368.87603,661.19642 -374.16713,659.04732 -377.98883,654.14092"
       style="fill:#000000;fill-opacity:1;stroke:none;stroke-width:3;stroke-miterlimit:4;stroke-dashoffset:0;stroke-opacity:1"
       id="path11657" />
    <path
       d="M -42.830927,631.49962 C -46.652227,626.58482 -47.555127,620.76382 -44.846527,618.50642 C -42.137827,616.24902 -36.838227,618.40582 -33.016927,623.32072 C -29.195727,628.23552 -28.292727,634.05652 -31.001427,636.31392 C -33.707427,638.56902 -38.998527,636.41992 -42.820127,631.51352"
       style="fill:#000000;fill-opacity:1;stroke:none;stroke-width:3;stroke-miterlimit:4;stroke-dashoffset:0;stroke-opacity:1"
       id="path11659" />
    <path
       d="M 368.19691,61.34729 C 372.01814,66.85328 372.9211,72.81392 370.21244,74.65229 C 367.50378,76.49064 362.20416,73.51401 358.38292,68.00801 C 354.56168,62.502 353.65872,56.54137 356.36738,54.70301 C 359.07335,52.86648 364.36445,55.83408 368.18611,61.33174"
       style="fill:#ff0000;fill-opacity:1;stroke:none;stroke-width:3;stroke-miterlimit:4;stroke-dashoffset:0;stroke-opacity:1"
       id="path11689" />
    <path
       d="M -215.02743,628.50272 L -172.02743,210.07124 L 357.47259,56.0027"
       style="fill:none;fill-rule:evenodd;stroke:#0500fc;stroke-width:4;stroke-linecap:butt;stroke-linejoin:miter;stroke-miterlimit:4;stroke-dasharray:8, 4;stroke-dashoffset:0;stroke-opacity:1"
       id="path11700" />
    <path
       d="M 374.05838,74.07377 L 357.97259,495.65346 L -200.02743,644.50272"
       style="fill:none;fill-rule:evenodd;stroke:#0500fc;stroke-width:4;stroke-linecap:butt;stroke-linejoin:miter;marker-mid:none;stroke-miterlimit:4;stroke-dasharray:8, 4;stroke-dashoffset:0;stroke-opacity:1"
       id="path11702" />
    <path
       d="M -45.027427,620.50272 L -171.32033,210.89967 L 335.97259,-50.9973"
       style="fill:none;fill-rule:evenodd;stroke:#f60101;stroke-width:4;stroke-linecap:butt;stroke-linejoin:miter;stroke-miterlimit:4;stroke-dasharray:8, 4;stroke-dashoffset:0;stroke-opacity:1"
       id="path11706" />
    <path
       d="M 383.95081,-7.6060133 L 357.3868,496.36056 L -30.027427,636.50272"
       style="fill:none;fill-rule:evenodd;stroke:#f60101;stroke-width:4;stroke-linecap:butt;stroke-linejoin:miter;stroke-miterlimit:4;stroke-dasharray:8, 4;stroke-dashoffset:0;stroke-opacity:1"
       id="path11708" />
    <path
       d="M 392.8254,163.47708 L -171.02743,211.5027 L -380.02743,642.50272"
       style="fill:none;fill-rule:evenodd;stroke:#00ff00;stroke-width:4;stroke-linecap:butt;stroke-linejoin:miter;stroke-miterlimit:4;stroke-dasharray:8, 4;stroke-dashoffset:0;stroke-opacity:1"
       id="path15312" />
    <path
       d="M -366.02743,657.50272 L 357.97259,494.5027 L 343.47511,110.1768"
       style="fill:none;fill-rule:evenodd;stroke:#00ff00;stroke-width:4;stroke-linecap:butt;stroke-linejoin:miter;stroke-miterlimit:4;stroke-dasharray:8, 4;stroke-dashoffset:0;stroke-opacity:1"
       id="path15316" />
    <path
       d="M -789.29713,210.46353 L -766.57613,210.46353 L -766.57613,132.04167 L -791.29383,136.99898 L -791.29383,124.3303 L -766.71383,119.37299 L -752.80583,119.37299 L -752.80583,210.46353 L -730.08483,210.46353 L -730.08483,222.16828 L -789.29713,222.16828 L -789.29713,210.46353"
       style="font-size:141.00787354px;font-style:normal;font-weight:normal;fill:#000000;fill-opacity:1;stroke:none;stroke-width:1px;stroke-linecap:butt;stroke-linejoin:miter;stroke-opacity:1;font-family:Bitstream Vera Sans"
       id="text16019" />
    <path
       d="M -619.72683,110.46353 L -571.18643,110.46353 L -571.18643,122.16828 L -636.45773,122.16828 L -636.45773,110.46353 C -631.17913,105.00132 -623.99563,97.68012 -614.90723,88.4999 C -605.77293,79.27384 -600.03533,73.32967 -597.69433,70.66736 C -593.24193,65.66421 -590.14363,61.44132 -588.39933,57.99868 C -586.60923,54.51027 -585.71423,51.09065 -585.71413,47.73981 C -585.71423,42.27767 -587.64203,37.82528 -591.49763,34.38262 C -595.30753,30.94013 -600.28773,29.21885 -606.43843,29.21876 C -610.79903,29.21885 -615.41213,29.97621 -620.27763,31.49086 C -625.09723,33.00568 -630.26113,35.30072 -635.76923,38.37601 L -635.76923,24.3303 C -630.16923,22.08125 -624.93653,20.38291 -620.07103,19.23529 C -615.20553,18.08787 -610.75313,17.51411 -606.71383,17.514 C -596.06483,17.51411 -587.57323,20.17636 -581.23883,25.50077 C -574.90453,30.82538 -571.73733,37.94003 -571.73733,46.84474 C -571.73733,51.0677 -572.54063,55.08404 -574.14713,58.89375 C -575.70783,62.65769 -578.57663,67.11009 -582.75353,72.25094 C -583.90113,73.58212 -587.55023,77.4378 -593.70093,83.818 C -599.85173,90.15237 -608.52693,99.0342 -619.72683,110.46353"
       style="font-size:141.00787354px;font-style:normal;font-weight:normal;fill:#000000;fill-opacity:1;stroke:none;stroke-width:1px;stroke-linecap:butt;stroke-linejoin:miter;stroke-opacity:1;font-family:Bitstream Vera Sans"
       id="text16044" />
    <path
       d="M -417.56983,-21.25718 C -410.91423,-19.83419 -405.72743,-16.87358 -402.00943,-12.37533 C -398.24563,-7.8769903 -396.36363,-2.3229803 -396.36353,4.2867297 C -396.36363,14.43087 -399.85213,22.27993 -406.82903,27.83394 C -413.80603,33.38797 -423.72063,36.16497 -436.57283,36.16498 C -440.88753,36.16497 -445.33993,35.72891 -449.93003,34.8568 C -454.47423,34.03058 -459.17913,32.7683 -464.04463,31.06996 L -464.04463,17.64392 C -460.18893,19.89308 -455.96603,21.59142 -451.37593,22.73893 C -446.78583,23.88647 -441.98923,24.46023 -436.98593,24.46022 C -428.26483,24.46023 -421.63213,22.73894 -417.08783,19.29636 C -412.49783,15.8538 -410.20283,10.8506 -410.20273,4.2867297 C -410.20283,-1.7721703 -412.33713,-6.4999603 -416.60593,-9.8966803 C -420.82883,-13.33921 -426.72713,-15.06049 -434.30073,-15.06054 L -446.28093,-15.06054 L -446.28093,-26.48989 L -433.74993,-26.48989 C -426.91073,-26.48983 -421.67803,-27.84391 -418.05183,-30.55213 C -414.42563,-33.30612 -412.61263,-37.2536 -412.61253,-42.39459 C -412.61263,-47.67312 -414.49453,-51.7124 -418.25833,-54.51245 C -421.97633,-57.35822 -427.32383,-58.78115 -434.30073,-58.78124 C -438.11053,-58.78115 -442.19573,-58.36804 -446.55633,-57.54192 C -450.91693,-56.71561 -455.71353,-55.43038 -460.94623,-53.68623 L -460.94623,-66.0795 C -455.66763,-67.54823 -450.73333,-68.64986 -446.14323,-69.38438 C -441.50723,-70.11869 -437.14663,-70.48589 -433.06143,-70.486 C -422.50423,-70.48589 -414.15023,-68.07609 -407.99943,-63.25659 C -401.84883,-58.4828 -398.77343,-52.01076 -398.77333,-43.84047 C -398.77343,-38.14867 -400.40293,-33.32907 -403.66183,-29.38165 C -406.92083,-25.48001 -411.55683,-22.77185 -417.56983,-21.25718"
       style="font-size:141.00787354px;font-style:normal;font-weight:normal;fill:#000000;fill-opacity:1;stroke:none;stroke-width:1px;stroke-linecap:butt;stroke-linejoin:miter;stroke-opacity:1;font-family:Bitstream Vera Sans"
       id="text16052" />
    <path
       d="M -173.49433,-195.13656 L -208.60863,-140.26191 L -173.49433,-140.26191 L -173.49433,-195.13656 M -177.14353,-207.25442 L -159.65523,-207.25442 L -159.65523,-140.26191 L -144.98983,-140.26191 L -144.98983,-128.69486 L -159.65523,-128.69486 L -159.65523,-104.45913 L -173.49433,-104.45913 L -173.49433,-128.69486 L -219.90023,-128.69486 L -219.90023,-142.1209 L -177.14353,-207.25442"
       style="font-size:141.00787354px;font-style:normal;font-weight:normal;fill:#000000;fill-opacity:1;stroke:none;stroke-width:1px;stroke-linecap:butt;stroke-linejoin:miter;stroke-opacity:1;font-family:Bitstream Vera Sans"
       id="text16060" />
    <path
       d="M 164.4307,-440.62698 L 219.02994,-440.62698 L 219.02994,-428.92222 L 177.16822,-428.92222 L 177.16822,-403.72257 C 179.18784,-404.41102 181.20748,-404.91593 183.22716,-405.23731 C 185.24676,-405.60445 187.26641,-405.78805 189.28609,-405.78812 C 200.76129,-405.78805 209.84968,-402.64384 216.55128,-396.35546 C 223.25275,-390.06697 226.60352,-381.55235 226.6036,-370.81156 C 226.60352,-359.74939 223.16095,-351.14296 216.27588,-344.99224 C 209.39067,-338.88741 199.68261,-335.835 187.15169,-335.83499 C 182.83696,-335.835 178.43047,-336.2022 173.9322,-336.93662 C 169.47979,-337.67103 164.86674,-338.77266 160.09305,-340.24149 L 160.09305,-354.21835 C 164.22413,-351.96918 168.49291,-350.2938 172.89943,-349.19219 C 177.3059,-348.09055 181.96485,-347.53974 186.87628,-347.53975 C 194.81711,-347.53974 201.10554,-349.62823 205.7416,-353.80524 C 210.37754,-357.98221 212.69553,-363.65097 212.6956,-370.81156 C 212.69553,-377.97207 210.37754,-383.64084 205.7416,-387.81788 C 201.10554,-391.99481 194.81711,-394.08331 186.87628,-394.08336 C 183.15827,-394.08331 179.44029,-393.6702 175.72234,-392.84404 C 172.05024,-392.01776 168.28636,-390.73254 164.4307,-388.98835 L 164.4307,-440.62698"
       style="font-size:141.00787354px;font-style:normal;font-weight:normal;fill:#000000;fill-opacity:1;stroke:none;stroke-width:1px;stroke-linecap:butt;stroke-linejoin:miter;stroke-opacity:1;font-family:Bitstream Vera Sans"
       id="text16068" />
    <path
       d="M -162.53313,-70.57767 L -122.93523,36.90263"
       style="fill:none;fill-rule:evenodd;stroke:#000000;stroke-width:4;stroke-linecap:butt;stroke-linejoin:miter;stroke-miterlimit:5;stroke-opacity:1"
       id="path16197" />
    <path
       d="M 1164.8877,717.30082 C 1182.0832,705.11182 1186.1465,681.26352 1173.9576,664.06792 C 1161.7686,646.87242 1137.9203,642.80902 1120.7247,654.99802 C 1103.5292,667.18702 1099.4658,691.03532 1111.6548,708.23092 C 1123.8317,725.40942 1147.6416,729.48532 1164.8391,717.33522"
       style="fill:#ffffff;fill-opacity:1;fill-rule:nonzero;stroke:none;stroke-width:2;stroke-linecap:butt;stroke-miterlimit:4;stroke-dashoffset:0;stroke-opacity:1"
       id="path15421" />
    <path
       d="M 1220.2257,548.90892 C 1237.4212,536.71992 1241.4845,512.87162 1229.2956,495.67605 C 1217.1066,478.48049 1193.2583,474.41716 1176.0627,486.60613 C 1158.8672,498.79512 1154.8038,522.64342 1166.9928,539.83902 C 1179.1697,557.01752 1202.9796,561.09332 1220.1771,548.94332"
       style="fill:#ffffff;fill-opacity:1;fill-rule:nonzero;stroke:none;stroke-width:2;stroke-linecap:butt;stroke-miterlimit:4;stroke-dashoffset:0;stroke-opacity:1"
       id="path15425" />
    <path
       d="M 133.47349,1186.1186 L 1214.4629,562.00912"
       style="fill:none;fill-rule:evenodd;stroke:#000000;stroke-width:1px;stroke-linecap:butt;stroke-linejoin:miter;stroke-opacity:1"
       id="path15429" />
    <path
       d="M 329.36508,483.79924 L 841.22579,779.32212 L 841.22579,1291.185 L 329.36508,995.66212 L 329.36508,483.79924 z "
       style="opacity:1;fill:#ff6300;fill-opacity:0.11711713;stroke:#000000;stroke-width:2;stroke-miterlimit:4;stroke-dasharray:none;stroke-dashoffset:0;stroke-opacity:0.38009051"
       id="rect15435" />
    <path
       d="M 163.36506,577.79942 L 675.22578,873.32232 L 675.22578,1385.1852 L 163.36506,1089.6623 L 163.36506,577.79942 z "
       style="opacity:1;fill:#ff6300;fill-opacity:0.11711713;stroke:#000000;stroke-width:2;stroke-miterlimit:4;stroke-dasharray:none;stroke-dashoffset:0;stroke-opacity:0.38009051"
       id="rect15437" />
    <path
       d="M 258.35321,832.59022 C 271.83251,840.37262 282.42344,854.28932 290.12602,874.34052 C 292.91476,882.12602 294.37558,887.68382 294.50847,891.01402 L 294.80728,891.18652 C 297.13121,881.77152 301.34766,875.27492 307.45664,871.69702 C 314.62782,868.66612 322.69552,869.73832 331.65975,874.91372 C 345.53739,882.92612 356.65952,896.78442 365.02618,916.48852 C 367.15084,923.22652 368.21325,929.01922 368.21342,933.86652 C 368.21325,950.46672 361.30757,962.31622 347.49635,969.41532 L 294.80728,1002.242 L 294.20967,1001.897 L 238.23375,900.95402 C 227.07839,880.90132 221.50072,863.63732 221.50074,849.16192 C 221.50072,835.15142 228.1076,827.84382 241.32139,827.23882 C 246.89902,827.47122 252.57629,829.25502 258.35321,832.59022"
       style="font-size:203.9834137px;font-style:normal;font-weight:normal;fill:#ff0000;fill-opacity:1;stroke:none;stroke-width:1px;stroke-linecap:butt;stroke-linejoin:miter;stroke-opacity:1;font-family:Bitstream Vera Sans"
       id="text15449" />
    <path
       d="M 494.31099,698.13102 C 508.52067,706.33512 518.97879,719.90962 525.68539,738.85452 C 526.54848,742.80582 527.07969,746.69812 527.27902,750.53152 C 527.27889,758.30042 523.29484,765.19682 515.32686,771.22052 L 509.35079,773.74632 L 509.64959,773.91882 C 514.56314,774.89652 519.8088,776.99542 525.38659,780.21572 L 527.27902,781.30832 C 543.08228,790.43242 554.17121,803.54112 560.54584,820.63442 C 562.0729,825.89852 562.83651,830.52272 562.83667,834.50682 C 562.83651,848.11892 555.89763,854.37162 542.02,853.26502 C 539.36383,852.52832 535.67859,850.99832 530.96426,848.67482 C 514.89514,839.39732 503.50741,823.72572 496.80102,801.65992 L 496.50222,801.48742 L 496.50222,802.38382 C 496.50213,825.15922 499.22456,841.73762 504.66953,852.11902 L 504.66953,852.71662 L 483.95246,840.75562 L 483.35485,839.81292 C 488.99884,834.57222 491.82087,820.89612 491.82096,798.78462 L 491.82096,798.48582 L 491.52216,798.31332 C 484.88199,812.87272 473.42785,815.45622 457.15972,806.06382 C 444.47711,798.74152 434.7494,786.45192 427.97654,769.19502 C 426.3165,763.72132 425.48649,759.05892 425.48651,755.20762 C 425.48649,739.73622 433.65378,733.96032 449.98842,737.87982 C 454.37083,739.61322 458.25528,741.45752 461.64177,743.41262 L 462.53819,743.93012 C 468.24859,747.22712 473.69346,751.30032 478.87279,756.14982 L 479.1716,756.32232 L 479.1716,756.02352 C 473.59386,748.08882 469.84221,741.27472 467.91665,735.58132 C 463.93254,725.97712 461.94052,718.48572 461.94058,713.10712 L 461.94058,711.71272 C 461.94052,698.36632 469.0786,692.36132 483.35485,693.69782 C 488.06923,695.15832 491.72127,696.63602 494.31099,698.13102"
       style="font-size:203.9834137px;font-style:normal;font-weight:normal;fill:#000000;fill-opacity:1;stroke:none;stroke-width:1px;stroke-linecap:butt;stroke-linejoin:miter;stroke-opacity:1;font-family:Bitstream Vera Sans"
       id="text15453" />
    <path
       d="M 184.69783,1009.3152 C 190.93941,1024.0078 201.23153,1044.6578 215.57422,1071.265 C 231.31108,1098.8103 239.37878,1114.5903 239.77733,1118.6052 C 242.36682,1125.7443 243.66163,1131.97 243.66178,1137.2821 L 243.66178,1141.2661 C 243.66163,1152.355 238.28317,1157.9814 227.52637,1158.1455 C 224.007,1157.5744 220.12255,1156.0621 215.87302,1153.6086 C 205.64718,1147.7047 197.38028,1135.5945 191.07231,1117.278 L 186.88905,1114.8628 L 186.88905,1116.058 C 186.88896,1134.8495 189.64459,1150.8162 195.15596,1163.9583 L 173.74169,1151.5948 L 173.74169,1150.9972 C 179.38567,1144.2291 182.2077,1131.3831 182.20779,1112.4589 L 181.90899,1111.9876 L 178.12414,1109.8024 L 173.44288,1115.8646 C 167.79873,1121.4373 160.76025,1121.7892 152.32741,1116.9205 C 139.91039,1109.7516 131.17869,1097.7714 126.13227,1080.9801 L 125.23587,1073.1916 L 125.23587,1068.61 C 125.23577,1056.4587 131.44429,1047.2278 143.86129,1040.9173 C 164.7775,1027.3627 178.19046,1016.8132 184.10022,1009.269 L 184.39902,1009.1427 L 184.69783,1009.3152"
       style="font-size:203.9834137px;font-style:normal;font-weight:normal;fill:#000000;fill-opacity:1;stroke:none;stroke-width:1px;stroke-linecap:butt;stroke-linejoin:miter;stroke-opacity:1;font-family:Bitstream Vera Sans"
       id="text15457" />
    <path
       d="M 1288.7044,38.65304 C 1294.8504,49.572294 1304.9849,64.054822 1319.108,82.100669 C 1334.6038,100.27749 1342.548,111.22929 1342.9404,114.9561 C 1345.4903,120.5138 1346.7652,125.90797 1346.7654,131.13862 L 1346.7654,135.06166 C 1346.7652,145.98082 1341.4691,154.5788 1330.8771,160.85563 C 1327.4116,162.29409 1323.5867,163.01332 1319.4022,163.0133 C 1309.333,163.01332 1301.1927,155.7884 1294.9813,141.33852 L 1290.8621,141.33852 L 1290.8621,142.51543 C 1290.862,161.01911 1293.5755,175.17472 1299.0024,184.9823 L 1277.9161,184.9823 L 1277.9161,184.39384 C 1283.4736,174.52088 1286.2525,160.26719 1286.2526,141.63275 L 1285.9583,141.33852 L 1282.2314,141.33852 L 1277.6219,149.9692 C 1272.0642,158.66529 1265.1335,163.01332 1256.8298,163.0133 C 1244.6029,163.01332 1236.005,156.1807 1231.0358,142.51543 L 1230.1531,135.35589 L 1230.1531,130.8444 C 1230.1531,118.8792 1236.2665,106.26011 1248.4933,92.987095 C 1269.0892,67.749011 1282.2967,49.735753 1288.116,38.947268 L 1288.4102,38.65304 L 1288.7044,38.65304"
       transform="matrix(1.0108655,0.6075949,0,-0.9892513,-8.0435681,-127.08833)"
       style="font-size:200.85946655px;font-style:normal;font-weight:normal;fill:#000000;fill-opacity:1;stroke:none;stroke-width:1px;stroke-linecap:butt;stroke-linejoin:miter;stroke-opacity:1;filter:url(#filter5847);font-family:Bitstream Vera Sans"
       id="text5851" />
    <path
       d="M 1381.7671,714.12442 C 1368.2878,706.34192 1357.6969,692.42522 1349.9943,672.37412 C 1347.2055,664.58862 1345.7447,659.03072 1345.6118,655.70052 L 1345.313,655.52792 C 1342.9891,664.94302 1338.7726,671.43962 1332.6637,675.01752 C 1325.4925,678.04852 1317.4248,676.97622 1308.4606,671.80092 C 1294.5829,663.78842 1283.4608,649.93012 1275.0941,630.22602 C 1272.9695,623.48802 1271.9071,617.69532 1271.9069,612.84812 C 1271.9071,596.24792 1278.8127,584.39832 1292.624,577.29932 L 1345.313,544.47252 L 1345.9106,544.81752 L 1401.8866,645.76052 C 1413.0419,665.81322 1418.6196,683.07722 1418.6196,697.55272 C 1418.6196,711.56312 1412.0127,718.87082 1398.7989,719.47562 C 1393.2213,719.24332 1387.544,717.45952 1381.7671,714.12442"
       style="font-size:203.9834137px;font-style:normal;font-weight:normal;fill:#ff0000;fill-opacity:1;stroke:none;stroke-width:1px;stroke-linecap:butt;stroke-linejoin:miter;stroke-opacity:1;font-family:Bitstream Vera Sans"
       id="text15465" />
    <path
       d="M 1288.6064,38.65304 C 1302.5984,38.653186 1312.8964,46.074256 1319.5003,60.916272 C 1320.3502,64.316357 1320.8732,67.847087 1321.0695,71.50847 C 1321.0694,79.158497 1317.1463,88.214164 1309.3004,98.675498 L 1303.4158,104.56005 L 1303.7101,104.56005 C 1308.5484,102.72938 1313.7137,101.81401 1319.2061,101.81393 L 1321.0695,101.81393 C 1336.6307,101.81401 1347.5498,108.41778 1353.8269,121.62526 C 1355.3305,125.94066 1356.0824,130.05984 1356.0826,133.98283 C 1356.0824,147.38657 1349.2498,157.48838 1335.5847,164.28828 C 1332.9692,165.07291 1329.3404,165.66136 1324.6983,166.05365 C 1308.8753,166.05367 1297.6619,157.09608 1291.0583,139.18085 L 1290.764,139.18085 L 1290.764,140.06353 C 1290.7639,162.49025 1293.4447,177.267 1298.8063,184.39384 L 1298.8063,184.9823 L 1278.4065,184.9823 L 1277.818,184.39384 C 1283.3756,176.02471 1286.1544,160.95373 1286.1545,139.18085 L 1286.1545,138.88662 L 1285.8602,138.88662 C 1279.3218,156.998 1268.0431,166.05367 1252.0241,166.05365 C 1239.5357,166.05367 1229.9569,159.48259 1223.2878,146.34039 C 1221.6532,141.89433 1220.8359,137.77514 1220.8359,133.98283 C 1220.8359,118.74843 1228.8781,108.41778 1244.9626,102.99084 C 1249.2779,102.20631 1253.1028,101.81401 1256.4375,101.81393 L 1257.3202,101.81393 C 1262.9431,101.81401 1268.3046,102.72938 1273.4046,104.56005 L 1273.6988,104.56005 L 1273.6988,104.26582 C 1268.2065,99.62365 1264.5123,95.046779 1262.6163,90.535197 C 1258.6932,83.343065 1256.7316,77.098905 1256.7317,71.802698 L 1256.7317,70.429635 C 1256.7316,57.287591 1263.7604,47.31655 1277.818,40.516482 C 1282.4602,39.274333 1286.0563,38.653186 1288.6064,38.65304"
       transform="matrix(1.0108655,0.6075949,0,-0.9892513,0,0)"
       style="font-size:200.85946655px;font-style:normal;font-weight:normal;fill:#000000;fill-opacity:1;stroke:none;stroke-width:1px;stroke-linecap:butt;stroke-linejoin:miter;stroke-opacity:1;filter:url(#filter5847);font-family:Bitstream Vera Sans"
       id="text5775" />
    <path
       d="M 541.51682,1071.4141 C 537.69559,1066.4993 536.79263,1060.6783 539.50129,1058.4209 C 542.20995,1056.1635 547.50957,1058.3203 551.33081,1063.2352 C 555.15205,1068.15 556.05501,1073.971 553.34635,1076.2284 C 550.64038,1078.4835 545.34928,1076.3344 541.52762,1071.428"
       style="fill:#ff0000;fill-opacity:1;stroke:none;stroke-width:3;stroke-miterlimit:4;stroke-dashoffset:0;stroke-opacity:1"
       id="path15479" />
    <path
       d="M 376.05382,1085.5562 C 372.23259,1080.6414 371.32963,1074.8204 374.03829,1072.563 C 376.74695,1070.3056 382.04657,1072.4624 385.86781,1077.3773 C 389.68905,1082.2921 390.59201,1088.1131 387.88335,1090.3705 C 385.17738,1092.6256 379.88628,1090.4765 376.06462,1085.5701"
       style="fill:#000000;fill-opacity:1;stroke:none;stroke-width:3;stroke-miterlimit:4;stroke-dashoffset:0;stroke-opacity:1"
       id="path15481" />
    <path
       d="M 711.22242,1062.9288 C 707.40119,1058.014 706.49823,1052.193 709.20689,1049.9356 C 711.91555,1047.6782 717.21517,1049.835 721.03641,1054.7499 C 724.85765,1059.6647 725.76061,1065.4857 723.05195,1067.7431 C 720.34598,1069.9982 715.05488,1067.8491 711.23322,1062.9427"
       style="fill:#000000;fill-opacity:1;stroke:none;stroke-width:3;stroke-miterlimit:4;stroke-dashoffset:0;stroke-opacity:1"
       id="path15483" />
    <path
       d="M 1125.7859,487.82673 C 1129.6071,493.33272 1130.5101,499.29332 1127.8014,501.13172 C 1125.0927,502.97012 1119.7931,499.99342 1115.9719,494.48745 C 1112.1506,488.98144 1111.2477,483.02081 1113.9563,481.18245 C 1116.6623,479.34592 1121.9534,482.31352 1125.7751,487.81118"
       style="fill:#ff0000;fill-opacity:1;stroke:none;stroke-width:3;stroke-miterlimit:4;stroke-dashoffset:0;stroke-opacity:1"
       id="path15485" />
    <path
       d="M 539.02599,1059.9319 L 689.50619,696.65482"
       style="fill:none;fill-rule:evenodd;stroke:#0500fc;stroke-width:4;stroke-linecap:butt;stroke-linejoin:miter;stroke-miterlimit:4;stroke-dasharray:8, 4;stroke-dashoffset:0;stroke-opacity:1"
       id="path15493" />
    <path
       d="M 1004.5458,871.92832 L 554.02599,1075.9319"
       style="fill:none;fill-rule:evenodd;stroke:#0500fc;stroke-width:4;stroke-linecap:butt;stroke-linejoin:miter;marker-start:none;stroke-miterlimit:4;stroke-dasharray:8, 4;stroke-dashoffset:0;stroke-opacity:1"
       id="path15495" />
    <path
       d="M 709.02599,1051.9319 L 688.79912,698.89742"
       style="fill:none;fill-rule:evenodd;stroke:#f60101;stroke-width:4;stroke-linecap:butt;stroke-linejoin:miter;stroke-miterlimit:4;stroke-dasharray:8, 4;stroke-dashoffset:0;stroke-opacity:1"
       id="path15499" />
    <path
       d="M 1003.96,874.04962 L 724.02599,1067.9319"
       style="fill:none;fill-rule:evenodd;stroke:#f60101;stroke-width:4;stroke-linecap:butt;stroke-linejoin:miter;stroke-miterlimit:4;stroke-dasharray:8, 4;stroke-dashoffset:0;stroke-opacity:1"
       id="path15501" />
    <path
       d="M 690.50622,700.91462 L 374.02599,1073.9319"
       style="fill:none;fill-rule:evenodd;stroke:#00ff00;stroke-width:4;stroke-linecap:butt;stroke-linejoin:miter;stroke-miterlimit:4;stroke-dasharray:8, 4;stroke-dashoffset:0;stroke-opacity:1"
       id="path15507" />
    <path
       d="M 388.02599,1088.9319 L 1003.1315,869.36332"
       style="fill:none;fill-rule:evenodd;stroke:#00ff00;stroke-width:4;stroke-linecap:butt;stroke-linejoin:miter;stroke-miterlimit:4;stroke-dasharray:8, 4;stroke-dashoffset:0;stroke-opacity:1"
       id="path15509" />
    <path
       d="M 501.10734,1626.7983 L 523.82833,1626.7983 L 523.82833,1548.3765 L 499.11064,1553.3338 L 499.11064,1540.6651 L 523.69063,1535.7078 L 537.59863,1535.7078 L 537.59863,1626.7983 L 560.31963,1626.7983 L 560.31963,1638.5031 L 501.10734,1638.5031 L 501.10734,1626.7983"
       style="font-size:141.00787354px;font-style:normal;font-weight:normal;fill:#000000;fill-opacity:1;stroke:none;stroke-width:1px;stroke-linecap:butt;stroke-linejoin:miter;stroke-opacity:1;font-family:Bitstream Vera Sans"
       id="text16175" />
    <path
       d="M 670.67766,1526.7983 L 719.21797,1526.7983 L 719.21797,1538.5031 L 653.94675,1538.5031 L 653.94675,1526.7983 C 659.22535,1521.3361 666.40885,1514.0149 675.49727,1504.8347 C 684.63153,1495.6087 690.36915,1489.6645 692.71014,1487.0022 C 697.16249,1481.999 700.2608,1477.7761 702.0051,1474.3335 C 703.79518,1470.8451 704.69024,1467.4255 704.69031,1464.0746 C 704.69024,1458.6125 702.7624,1454.1601 698.90678,1450.7174 C 695.09695,1447.275 690.11669,1445.5537 683.966,1445.5536 C 679.60537,1445.5537 674.99233,1446.311 670.12685,1447.8257 C 665.30723,1449.3405 660.14337,1451.6355 654.63526,1454.7108 L 654.63526,1440.6651 C 660.23517,1438.4161 665.46788,1436.7177 670.33341,1435.5701 C 675.19888,1434.4227 679.65127,1433.8489 683.6906,1433.8488 C 694.33958,1433.8489 702.83126,1436.5112 709.16565,1441.8356 C 715.49992,1447.1602 718.66709,1454.2748 718.66716,1463.1796 C 718.66709,1467.4025 717.86382,1471.4189 716.25736,1475.2286 C 714.69665,1478.9925 711.82784,1483.4449 707.65092,1488.5858 C 706.50333,1489.9169 702.85421,1493.7726 696.70353,1500.1528 C 690.55275,1506.4872 681.87747,1515.369 670.67766,1526.7983"
       style="font-size:141.00787354px;font-style:normal;font-weight:normal;fill:#000000;fill-opacity:1;stroke:none;stroke-width:1px;stroke-linecap:butt;stroke-linejoin:miter;stroke-opacity:1;font-family:Bitstream Vera Sans"
       id="text16179" />
    <path
       d="M 872.83462,1395.0776 C 879.4902,1396.5006 884.67701,1399.4612 888.39506,1403.9595 C 892.15887,1408.4578 894.04081,1414.0118 894.04088,1420.6215 C 894.04081,1430.7657 890.55233,1438.6148 883.57546,1444.1688 C 876.59844,1449.7228 866.68384,1452.4998 853.83161,1452.4998 C 849.51688,1452.4998 845.06449,1452.0637 840.47442,1451.1916 C 835.9302,1450.3654 831.22535,1449.1031 826.35986,1447.4048 L 826.35986,1433.9787 C 830.21553,1436.2279 834.43842,1437.9262 839.02853,1439.0738 C 843.61861,1440.2213 848.41526,1440.795 853.4185,1440.795 C 862.13964,1440.795 868.77233,1439.0738 873.31658,1435.6312 C 877.90662,1432.1886 880.20167,1427.1854 880.20173,1420.6215 C 880.20167,1414.5627 878.06727,1409.8349 873.79854,1406.4381 C 869.5756,1402.9956 863.67732,1401.2743 856.10371,1401.2743 L 844.12355,1401.2743 L 844.12355,1389.8449 L 856.65452,1389.8449 C 863.49372,1389.845 868.72643,1388.4909 872.35266,1385.7827 C 875.97878,1383.0287 877.79187,1379.0812 877.79193,1373.9402 C 877.79187,1368.6617 875.90993,1364.6224 872.14611,1361.8224 C 868.42807,1358.9766 863.08061,1357.5537 856.10371,1357.5536 C 852.29389,1357.5537 848.2087,1357.9668 843.84814,1358.7929 C 839.48752,1359.6192 834.69087,1360.9044 829.45818,1362.6486 L 829.45818,1350.2553 C 834.73677,1348.7866 839.67112,1347.685 844.26125,1346.9504 C 848.89722,1346.2161 853.25781,1345.8489 857.34303,1345.8488 C 867.90021,1345.8489 876.25419,1348.2587 882.40498,1353.0782 C 888.55564,1357.852 891.63101,1364.3241 891.63108,1372.4944 C 891.63101,1378.1861 890.00152,1383.0057 886.74262,1386.9532 C 883.48359,1390.8548 878.84759,1393.563 872.83462,1395.0776"
       style="font-size:141.00787354px;font-style:normal;font-weight:normal;fill:#000000;fill-opacity:1;stroke:none;stroke-width:1px;stroke-linecap:butt;stroke-linejoin:miter;stroke-opacity:1;font-family:Bitstream Vera Sans"
       id="text16183" />
    <path
       d="M 1116.9101,1221.1982 L 1081.7958,1276.0729 L 1116.9101,1276.0729 L 1116.9101,1221.1982 M 1113.261,1209.0804 L 1130.7492,1209.0804 L 1130.7492,1276.0729 L 1145.4146,1276.0729 L 1145.4146,1287.6399 L 1130.7492,1287.6399 L 1130.7492,1311.8757 L 1116.9101,1311.8757 L 1116.9101,1287.6399 L 1070.5042,1287.6399 L 1070.5042,1274.2139 L 1113.261,1209.0804"
       style="font-size:141.00787354px;font-style:normal;font-weight:normal;fill:#000000;fill-opacity:1;stroke:none;stroke-width:1px;stroke-linecap:butt;stroke-linejoin:miter;stroke-opacity:1;font-family:Bitstream Vera Sans"
       id="text16187" />
    <path
       d="M 1454.8352,975.70782 L 1509.4345,975.70782 L 1509.4345,987.41262 L 1467.5727,987.41262 L 1467.5727,1012.6122 C 1469.5924,1011.9238 1471.612,1011.4189 1473.6317,1011.0975 C 1475.6513,1010.7303 1477.6709,1010.5467 1479.6906,1010.5467 C 1491.1658,1010.5467 1500.2542,1013.691 1506.9558,1019.9793 C 1513.6573,1026.2678 1517.008,1034.7824 1517.0081,1045.5232 C 1517.008,1056.5854 1513.5655,1065.1918 1506.6804,1071.3425 C 1499.7952,1077.4474 1490.0871,1080.4998 1477.5562,1080.4998 C 1473.2415,1080.4998 1468.835,1080.1326 1464.3367,1079.3982 C 1459.8843,1078.6638 1455.2713,1077.5621 1450.4976,1076.0933 L 1450.4976,1062.1164 C 1454.6286,1064.3656 1458.8974,1066.041 1463.3039,1067.1426 C 1467.7104,1068.2442 1472.3694,1068.795 1477.2808,1068.795 C 1485.2216,1068.795 1491.5101,1066.7066 1496.1461,1062.5296 C 1500.7821,1058.3526 1503.1,1052.6838 1503.1001,1045.5232 C 1503.1,1038.3627 1500.7821,1032.6939 1496.1461,1028.5169 C 1491.5101,1024.34 1485.2216,1022.2515 1477.2808,1022.2514 C 1473.5628,1022.2515 1469.8448,1022.6646 1466.1269,1023.4908 C 1462.4548,1024.317 1458.6909,1025.6023 1454.8352,1027.3464 L 1454.8352,975.70782"
       style="font-size:141.00787354px;font-style:normal;font-weight:normal;fill:#000000;fill-opacity:1;stroke:none;stroke-width:1px;stroke-linecap:butt;stroke-linejoin:miter;stroke-opacity:1;font-family:Bitstream Vera Sans"
       id="text16191" />
    <path
       d="M 1088.2734,1181.7083 L 1054.3322,1085.5417"
       style="fill:none;fill-rule:evenodd;stroke:#000000;stroke-width:4;stroke-linecap:butt;stroke-linejoin:miter;stroke-miterlimit:5;stroke-opacity:1"
       id="path16199" />
    <path
       d="M -0.14672714,673.30402 L 511.71401,968.82692 L 511.71401,1480.6898 L -0.14672714,1185.1669 L -0.14672714,673.30402 z "
       style="opacity:1;fill:#ff6300;fill-opacity:0.11711713;stroke:#000000;stroke-width:2;stroke-miterlimit:4;stroke-dasharray:none;stroke-dashoffset:0;stroke-opacity:0.38009051"
       id="rect15433" />
    <path
       d="M -754.20013,241.87469 L -242.33943,537.39762 L -242.33943,1049.2605 L -754.20013,753.73762 L -754.20013,241.87469 z "
       style="opacity:1;fill:#ff6300;fill-opacity:0.11711713;stroke:#000000;stroke-width:2;stroke-miterlimit:4;stroke-dasharray:none;stroke-dashoffset:0;stroke-opacity:0.38009051"
       id="rect11358" />
    <path
       d="M 966.39582,-239.29492 C 973.17315,-229.52949 974.77464,-218.95769 969.97056,-215.69716 C 965.16648,-212.43666 955.76707,-217.71601 948.98972,-227.48146 C 942.21236,-237.24692 940.61087,-247.8187 945.41495,-251.07922 C 950.21426,-254.33649 959.59856,-249.07315 966.37666,-239.3225"
       style="fill:#ff0000;fill-opacity:1;stroke:none;stroke-width:3;stroke-miterlimit:4;stroke-dashoffset:0;stroke-opacity:1"
       id="path5003" />
    <path
       d="M 742.77367,-185.03784 L 944.62928,-242.75759"
       style="fill:none;fill-rule:evenodd;stroke:#0500fc;stroke-width:7.09440374;stroke-linecap:butt;stroke-linejoin:miter;stroke-miterlimit:4;stroke-dasharray:14.1888072, 7.0944036;stroke-dashoffset:0;stroke-opacity:1"
       id="path5005" />
    <path
       d="M 971.77524,-215.46909 L 961.63607,106.41172"
       style="fill:none;fill-rule:evenodd;stroke:#0500fc;stroke-width:7.09440374;stroke-linecap:butt;stroke-linejoin:miter;marker-mid:none;stroke-miterlimit:4;stroke-dasharray:14.1888072, 7.0944036;stroke-dashoffset:0;stroke-opacity:1"
       id="path5007" />
    <path
       d="M 739.48433,-350.90926 L 909.24273,-438.54939"
       style="fill:none;fill-rule:evenodd;stroke:#f60101;stroke-width:7.09440374;stroke-linecap:butt;stroke-linejoin:miter;stroke-miterlimit:4;stroke-dasharray:14.1888072, 7.0944036;stroke-dashoffset:0;stroke-opacity:1"
       id="path5009" />
    <path
       d="M 995.8395,-361.95477 L 973.24729,104.80773"
       style="fill:none;fill-rule:evenodd;stroke:#f60101;stroke-width:7.09440374;stroke-linecap:butt;stroke-linejoin:miter;stroke-miterlimit:4;stroke-dasharray:14.1888072, 7.0944036;stroke-dashoffset:0;stroke-opacity:1"
       id="path5011" />
    <path
       d="M 1005.2371,-63.437209 L 741.03395,-35.24196"
       style="fill:none;fill-rule:evenodd;stroke:#00ff00;stroke-width:7.09440374;stroke-linecap:butt;stroke-linejoin:miter;stroke-miterlimit:4;stroke-dasharray:14.1888072, 7.0944036;stroke-dashoffset:0;stroke-opacity:1"
       id="path5013" />
    <path
       d="M 932.2946,105.6579 L 926.50904,-149.17101"
       style="fill:none;fill-rule:evenodd;stroke:#00ff00;stroke-width:7.09440374;stroke-linecap:butt;stroke-linejoin:miter;stroke-miterlimit:4;stroke-dasharray:14.1888072, 7.0944036;stroke-dashoffset:0;stroke-opacity:1"
       id="path5015" />
    <path
       d="M 910.26328,-439.07625 L 1002.3831,-485.26113"
       style="opacity:0.29017855;fill:none;fill-rule:evenodd;stroke:#f60101;stroke-width:7.09440374;stroke-linecap:butt;stroke-linejoin:miter;stroke-miterlimit:4;stroke-dasharray:3.5472018, 3.5472018;stroke-dashoffset:0;stroke-opacity:1"
       id="path5017" />
    <path
       d="M 1001.3547,-487.34796 L 995.6275,-361.68976"
       style="opacity:0.29017855;fill:none;fill-rule:evenodd;stroke:#f60101;stroke-width:7.09440374;stroke-linecap:butt;stroke-linejoin:miter;stroke-miterlimit:4;stroke-dasharray:3.5472018, 3.5472018;stroke-dashoffset:0;stroke-opacity:1"
       id="path5021" />
    <rect
       width="108"
       height="324"
       rx="1.4179704"
       ry="1.4179709"
       x="294.91666"
       y="-95.707329"
       style="opacity:0.28999999;fill:none;fill-opacity:0.21176471;stroke:#000000;stroke-width:3;stroke-miterlimit:4;stroke-dasharray:none;stroke-dashoffset:0;stroke-opacity:1"
       id="rect5235" />
    <rect
       width="108"
       height="324"
       rx="1.4179704"
       ry="1.4179709"
       x="1041.6215"
       y="339.87042"
       style="opacity:0.28999999;fill:none;fill-opacity:0.21176471;stroke:#000000;stroke-width:3;stroke-miterlimit:4;stroke-dasharray:none;stroke-dashoffset:0;stroke-opacity:1"
       id="rect5245" />
    <g
       transform="translate(1126.2544,-503.03228)"
       style="fill:#919191;fill-opacity:1;stroke:#919191;stroke-opacity:1"
       id="g5499">
      <path
         d="M -423.05653,160.02734 C -423.05653,160.02734 -655.25591,182.6562 -751.55652,378.08984 L -750.65023,378.52735 C -654.61792,183.63805 -422.96272,161.02735 -422.96272,161.02735 L -423.05653,160.02734 z "
         style="opacity:1;fill:#919191;fill-opacity:1;fill-rule:evenodd;stroke:#919191;stroke-width:10;stroke-linecap:butt;stroke-linejoin:miter;stroke-miterlimit:4;stroke-dasharray:none;stroke-opacity:1"
         id="path5247" />
      <path
         d="M -401.77504,156.99122 L -438.01378,182.93711 L -442.34534,138.53887 L -401.77504,156.99122 z "
         style="opacity:1;fill:#919191;fill-opacity:1;fill-rule:evenodd;stroke:#919191;stroke-width:4.46090813pt;marker-start:none;stroke-opacity:1"
         id="path5464" />
    </g>
    <g
       transform="translate(1126.2544,-503.03228)"
       style="fill:#919191;fill-opacity:1;stroke:#919191;stroke-opacity:1"
       id="g5495">
      <path
         d="M 260.77708,652.31144 C 260.77708,652.31144 238.14822,884.51083 42.714586,980.81142 L 42.277074,979.90513 C 237.16637,883.87283 259.77707,652.21764 259.77707,652.21764 L 260.77708,652.31144 z "
         style="opacity:1;fill:#919191;fill-opacity:1;fill-rule:evenodd;stroke:#919191;stroke-width:10;stroke-linecap:butt;stroke-linejoin:miter;stroke-miterlimit:4;stroke-dasharray:none;stroke-opacity:1"
         id="path5470" />
      <path
         d="M 263.8132,631.02995 L 237.86732,667.26871 L 282.26555,671.60026 L 263.8132,631.02995 z "
         style="opacity:1;fill:#919191;fill-opacity:1;fill-rule:evenodd;stroke:#919191;stroke-width:4.46090813pt;marker-start:none;stroke-opacity:1"
         id="path5472" />
    </g>
    <path
       d="M 1333.6167,-246.04968 L 1138.2698,-143.24666"
       style="fill:none;fill-rule:evenodd;stroke:#0000ff;stroke-width:7.26286745;stroke-linecap:butt;stroke-linejoin:miter;stroke-miterlimit:4;stroke-dasharray:14.52573532, 7.26286765;stroke-dashoffset:0;stroke-opacity:1"
       id="path5138" />
    <path
       d="M 1364.5698,-67.24658 L 1134.9712,-5.20395"
       style="fill:none;fill-rule:evenodd;stroke:#00ff00;stroke-width:7.26286745;stroke-linecap:butt;stroke-linejoin:miter;stroke-miterlimit:4;stroke-dasharray:14.52573532, 7.26286765;stroke-dashoffset:0;stroke-opacity:1"
       id="path5146" />
    <path
       d="M 1356.3185,-240.20829 C 1363.2568,-230.21096 1364.8963,-219.38821 1359.9781,-216.05018 C 1355.06,-212.71218 1345.4374,-218.11703 1338.4991,-228.1143 C 1331.5608,-238.11166 1329.9213,-248.93448 1334.8394,-252.27242 C 1339.7527,-255.60704 1349.3598,-250.21872 1356.2989,-240.23652"
       style="fill:#ff0000;fill-opacity:1;stroke:none;stroke-width:3;stroke-miterlimit:4;stroke-dashoffset:0;stroke-opacity:1"
       id="path5150" />
    <path
       d="M 1360.5635,-218.43804 L 1251.4977,108.84068"
       style="fill:none;fill-rule:evenodd;stroke:#0000ff;stroke-width:7.26286745;stroke-linecap:butt;stroke-linejoin:miter;stroke-miterlimit:4;stroke-dasharray:14.52573532, 7.26286765;stroke-dashoffset:0;stroke-opacity:1"
       id="path5140" />
    <path
       d="M 1334.7253,-106.0014 L 1258.8422,108.75262"
       style="fill:none;fill-rule:evenodd;stroke:#00ff00;stroke-width:7.46512365;stroke-linecap:butt;stroke-linejoin:miter;stroke-miterlimit:4;stroke-dasharray:14.93024701, 7.46512351;stroke-dashoffset:0;stroke-opacity:1"
       id="path5156" />
    <path
       d="M 1324.8476,-409.37786 L 1370.3808,-442.00094"
       style="opacity:0.28999999;fill:none;fill-rule:evenodd;stroke:#ff0000;stroke-width:7.26286745;stroke-linecap:butt;stroke-linejoin:miter;stroke-miterlimit:4;stroke-dasharray:3.63143373, 3.63143373;stroke-dashoffset:0;stroke-opacity:1"
       id="path5198" />
    <path
       d="M 1137.3697,-273.31469 L 1322.201,-407.48167"
       style="fill:none;fill-rule:evenodd;stroke:#ff0000;stroke-width:7.26286745;stroke-linecap:butt;stroke-linejoin:miter;stroke-miterlimit:4;stroke-dasharray:14.52573532, 7.26286765;stroke-dashoffset:0;stroke-opacity:1"
       id="path5142" />
    <path
       d="M 1371.3578,-441.85809 L 1353.7079,-374.41021"
       style="opacity:0.28999999;fill:none;fill-rule:evenodd;stroke:#ff0000;stroke-width:7.26286745;stroke-linecap:butt;stroke-linejoin:miter;stroke-miterlimit:4;stroke-dasharray:3.63143373, 3.63143373;stroke-dashoffset:0;stroke-opacity:1"
       id="path5200" />
    <path
       d="M 1360.6151,-94.604199 C 1367.5534,-84.606869 1369.1929,-73.784119 1364.2747,-70.446089 C 1359.3566,-67.108089 1349.734,-72.512939 1342.7957,-82.510209 C 1335.8574,-92.507569 1334.2178,-103.33039 1339.136,-106.66833 C 1344.0493,-110.00295 1353.6564,-104.61463 1360.5955,-94.632429"
       style="fill:#000000;fill-opacity:1;stroke:none;stroke-width:3;stroke-miterlimit:4;stroke-dashoffset:0;stroke-opacity:1;filter:url(#filter5525)"
       id="path5339" />
    <path
       d="M 1347.615,-399.6042 C 1354.5533,-389.60687 1356.1928,-378.78412 1351.2746,-375.44609 C 1346.3565,-372.10809 1336.7339,-377.51294 1329.7956,-387.51021 C 1322.8573,-397.50757 1321.2178,-408.33039 1326.136,-411.66833 C 1331.0492,-415.00295 1340.6564,-409.61463 1347.5954,-399.63243"
       style="fill:#000000;fill-opacity:1;stroke:none;stroke-width:3;stroke-miterlimit:4;stroke-dashoffset:0;stroke-opacity:1;filter:url(#filter5525)"
       id="path5529" />
    <path
       d="M 1354.2987,-376.66795 L 1227.0223,109.70946"
       style="fill:none;fill-rule:evenodd;stroke:#ff0000;stroke-width:7.26286745;stroke-linecap:butt;stroke-linejoin:miter;stroke-miterlimit:4;stroke-dasharray:14.52573532, 7.26286765;stroke-dashoffset:0;stroke-opacity:1"
       id="path5144" />
    <path
       d="M 339.913,-52.67426 L 389.15923,-78.202964"
       style="opacity:0.51054855;fill:none;fill-rule:evenodd;stroke:#f60101;stroke-width:3.70572877;stroke-linecap:butt;stroke-linejoin:miter;stroke-miterlimit:4;stroke-dasharray:1.85286434, 1.85286434;stroke-dashoffset:0;stroke-opacity:1"
       id="path3415" />
    <path
       d="M 386.49049,-77.368821 L 383.91244,-8.7663331"
       style="opacity:0.51054855;fill:none;fill-rule:evenodd;stroke:#f60101;stroke-width:3.70572877;stroke-linecap:butt;stroke-linejoin:miter;stroke-miterlimit:4;stroke-dasharray:1.85286434, 1.85286434;stroke-dashoffset:0;stroke-opacity:1"
       id="path3417" />
    <path
       d="M 370.94303,-35.483984 C 376.90274,-26.896663 378.31103,-17.600254 374.08651,-14.733072 C 369.862,-11.865922 361.59654,-16.508371 355.63681,-25.095708 C 349.67708,-33.683061 348.26879,-42.979454 352.49331,-45.84662 C 356.71363,-48.710932 364.9658,-44.082566 370.92618,-35.508236"
       transform="matrix(1.2412127,0,0,1.2412127,-87.630137,7.3063181)"
       style="fill:#000000;fill-opacity:1;stroke:none;stroke-width:3;stroke-miterlimit:4;stroke-dashoffset:0;stroke-opacity:1;filter:url(#filter5327)"
       id="path5309" />
    <path
       d="M 370.94303,-35.483984 C 376.90274,-26.896663 378.31103,-17.600254 374.08651,-14.733072 C 369.862,-11.865922 361.59654,-16.508371 355.63681,-25.095708 C 349.67708,-33.683061 348.26879,-42.979454 352.49331,-45.84662 C 356.71363,-48.710932 364.9658,-44.082566 370.92618,-35.508236"
       transform="matrix(1.2412127,0,0,1.2412127,-87.630137,176.66508)"
       style="fill:#000000;fill-opacity:1;stroke:none;stroke-width:3;stroke-miterlimit:4;stroke-dashoffset:0;stroke-opacity:1;filter:url(#filter5327)"
       id="path5331" />
    <path
       d="M 370.94303,-35.483984 C 376.90274,-26.896663 378.31103,-17.600254 374.08651,-14.733072 C 369.862,-11.865922 361.59654,-16.508371 355.63681,-25.095708 C 349.67708,-33.683061 348.26879,-42.979454 352.49331,-45.84662 C 356.71363,-48.710932 364.9658,-44.082566 370.92618,-35.508236"
       transform="matrix(2.0599157,0,0,2.0599157,215.61694,-40.474506)"
       style="fill:#000000;fill-opacity:1;stroke:none;stroke-width:3;stroke-miterlimit:4;stroke-dashoffset:0;stroke-opacity:1;filter:url(#filter5327)"
       id="path5335" />
    <path
       d="M 972.20355,-409.54207 C 984.48005,-391.85291 987.38101,-372.70309 978.67885,-366.79694 C 969.97672,-360.89085 952.95057,-370.45391 940.67403,-388.1431 C 928.39748,-405.83232 925.49653,-424.98211 934.19868,-430.88823 C 942.89218,-436.78847 959.89096,-427.25442 972.16884,-409.59203"
       style="fill:#000000;fill-opacity:1;stroke:none;stroke-width:3;stroke-miterlimit:4;stroke-dashoffset:0;stroke-opacity:1;filter:url(#filter6089)"
       id="path5337" />
    <path
       d="M 1121.7641,399.74969 C 1125.5853,405.25568 1126.4883,411.21628 1123.7796,413.05468 C 1121.0709,414.89308 1115.7713,411.91638 1111.9501,406.41041 C 1108.1288,400.9044 1107.2259,394.94377 1109.9345,393.10541 C 1112.6405,391.26888 1117.9316,394.23648 1121.7533,399.73414"
       style="fill:#000000;fill-opacity:1;stroke:none;stroke-width:3;stroke-miterlimit:4;stroke-dashoffset:0;stroke-opacity:1;filter:url(#filter5769)"
       id="path5531" />
  </g>
</svg>
